<?xml version="1.0" encoding="UTF-8" standalone="no"?>
<!-- Created with Inkscape (http://www.inkscape.org/) -->

<svg
   xmlns:dc="http://purl.org/dc/elements/1.1/"
   xmlns:cc="http://creativecommons.org/ns#"
   xmlns:rdf="http://www.w3.org/1999/02/22-rdf-syntax-ns#"
   xmlns:svg="http://www.w3.org/2000/svg"
   xmlns="http://www.w3.org/2000/svg"
   xmlns:sodipodi="http://sodipodi.sourceforge.net/DTD/sodipodi-0.dtd"
   xmlns:inkscape="http://www.inkscape.org/namespaces/inkscape"
   width="220"
   height="100"
   viewBox="0 0 58.208333 26.458334"
   version="1.1"
   id="svg13625"
   inkscape:version="0.92.1 r15371"
   sodipodi:docname="vaca4.svg">
  <defs
     id="defs13619">
    <clipPath
       clipPathUnits="userSpaceOnUse"
       id="clipPath9406-5-9-1-5-3-8-6-4">
      <rect
         style="opacity:0.73280005;fill:#ffdd55;fill-opacity:1;stroke:none;stroke-width:0.5;stroke-miterlimit:4;stroke-dasharray:none;stroke-opacity:1"
         id="rect9408-2-0-59-4-6-7-1-03"
         width="477.41364"
         height="539.93207"
         x="573.77612"
         y="244.1604" />
    </clipPath>
    <clipPath
       clipPathUnits="userSpaceOnUse"
       id="clipPath9406-5-9-1-5-3-8-6-1-2-4-4-7">
      <rect
         style="opacity:0.73280005;fill:#ffdd55;fill-opacity:1;stroke:none;stroke-width:0.5;stroke-miterlimit:4;stroke-dasharray:none;stroke-opacity:1"
         id="rect9408-2-0-59-4-6-7-1-0-9-4-9-5"
         width="477.41364"
         height="539.93207"
         x="573.77612"
         y="244.1604" />
    </clipPath>
    <inkscape:path-effect
       effect="skeletal"
       id="path-effect11088-4-9-8-1-6-5-2-4-9-4"
       is_visible="true"
       pattern="m 305.88804,1474.6963 c 0,-2.76 2.24,-5 5,-5 2.76,0 5,2.24 5,5 0,2.76 -2.24,5 -5,5 -2.76,0 -5,-2.24 -5,-5 z"
       copytype="single_stretched"
       prop_scale="0.016657523"
       scale_y_rel="false"
       spacing="0"
       normal_offset="0"
       tang_offset="0"
       prop_units="false"
       vertical_pattern="false"
       fuse_tolerance="0" />
    <inkscape:path-effect
       effect="skeletal"
       id="path-effect11096-1-0-9-9-5-6-6-1-3-5"
       is_visible="true"
       pattern="m 305.88804,1474.6963 c 0,-2.76 2.24,-5 5,-5 2.76,0 5,2.24 5,5 0,2.76 -2.24,5 -5,5 -2.76,0 -5,-2.24 -5,-5 z"
       copytype="single_stretched"
       prop_scale="0.014189742"
       scale_y_rel="false"
       spacing="0"
       normal_offset="0"
       tang_offset="0"
       prop_units="false"
       vertical_pattern="false"
       fuse_tolerance="0" />
  </defs>
  <sodipodi:namedview
     id="base"
     pagecolor="#ffffff"
     bordercolor="#666666"
     borderopacity="1.0"
     inkscape:pageopacity="0.0"
     inkscape:pageshadow="2"
     inkscape:zoom="2.7599398"
     inkscape:cx="108.57143"
     inkscape:cy="45.714286"
     inkscape:document-units="mm"
     inkscape:current-layer="layer1"
     showgrid="false"
     units="px"
     inkscape:window-width="1918"
     inkscape:window-height="1023"
     inkscape:window-x="0"
     inkscape:window-y="26"
     inkscape:window-maximized="1" />
  <metadata
     id="metadata13622">
    <rdf:RDF>
      <cc:Work
         rdf:about="">
        <dc:format>image/svg+xml</dc:format>
        <dc:type
           rdf:resource="http://purl.org/dc/dcmitype/StillImage" />
        <dc:title></dc:title>
      </cc:Work>
    </rdf:RDF>
  </metadata>
  <g
     inkscape:label="Capa 1"
     inkscape:groupmode="layer"
     id="layer1"
     transform="translate(0,-270.54165)">
    <g
       transform="translate(26.269288,477.20446)"
       id="g12777"
       inkscape:export-xdpi="94"
       inkscape:export-ydpi="94">
      <g
         transform="translate(198.37698,-179.14043)"
         id="g5181">
        <path
           style="fill:#ffffff;fill-opacity:1;stroke:#dcdfcf;stroke-width:0.186;stroke-miterlimit:4;stroke-dasharray:none;stroke-opacity:1"
           d="m -167.78977,-13.008975 c -0.18934,0.507329 -0.51066,1.310302 -0.79243,1.731663 -0.43192,0.645884 -1.89408,2.2160681 -1.89408,2.2160681 l -1.97108,-0.5835407 -2.64462,-1.1031004 c 0.51743,-1.60896 0.86501,-2.250258 1.43834,-3.85697 0.0724,-0.169662 0.31208,-0.351972 0.51442,-0.252523 0.59258,0.140691 1.71734,0.408995 2.37227,0.573198 0.77392,0.194042 2.11441,0.546904 2.76527,0.718897 0.53377,0.101661 0.22302,0.388519 0.21191,0.556308 z"
           id="path9212-8-8-0-0-0-7-8-0-3"
           inkscape:connector-curvature="0"
           sodipodi:nodetypes="cscccccscc" />
        <path
           style="fill:#c2c5a8;fill-rule:evenodd;stroke:none;stroke-width:0.08594146"
           d="m -167.61071,-13.342748 0.0872,0.819066 c 0,0 -0.73502,1.649049 -1.08365,1.980617 -0.34862,0.331569 -1.44231,1.6797544 -1.44231,1.6797544 l -0.90038,0.1493146 -0.17397,-0.6532316 0.80988,0.1810455 c 0,0 0.85913,-0.9944589 1.33438,-1.7174259 0.47524,-0.722975 1.36881,-2.43914 1.36881,-2.43914 z"
           id="path9224-1-34-0-1-3-4-9-8-7"
           inkscape:connector-curvature="0"
           sodipodi:nodetypes="ccsccccsc" />
        <path
           style="fill:#dcdfcf;fill-opacity:1;fill-rule:evenodd;stroke:none;stroke-width:0.08594146"
           d="m -170.25067,-9.1855085 c 0,0 -2.53052,-0.7875824 -3.1444,-0.9460595 -0.61387,-0.158468 -1.66293,-0.650428 -1.66293,-0.650428 l -2.6718,0.782396 c 0,0 0.19905,0.9324085 1.3677,1.6608505 0.96865,0.6037725 3.34319,1.7324636 3.34319,1.7324636 l 1.98588,-0.9376374 z"
           id="path9208-6-39-2-3-4-9-2-1-8"
           inkscape:connector-curvature="0"
           sodipodi:nodetypes="csccsccc" />
        <path
           style="fill:#d9caa2;fill-opacity:1;fill-rule:evenodd;stroke:none;stroke-width:0.08594146"
           d="m -173.01419,-6.7758893 c 0,0 -2.33952,-0.9015252 -2.74335,-1.1887032 -0.40382,-0.2871779 -1.86937,-1.5509507 -1.91858,-1.9228883 -0.0492,-0.3719472 -0.26961,0.9256498 -0.26961,0.9256498 0.29761,0.9560685 3.80748,2.670954 4.92169,2.923557 0.44007,0.099775 0.25757,-0.4212686 0.01,-0.7376153 z"
           id="path9200-1-5-4-3-0-9-8-9-8"
           inkscape:connector-curvature="0"
           sodipodi:nodetypes="csccsc" />
        <path
           style="fill:#c2c5a8;fill-opacity:1;fill-rule:evenodd;stroke:none;stroke-width:0.08594146"
           d="m -170.38571,-8.8392828 0.15457,0.7869122 c 0,0 -1.11345,1.5205282 -1.4403,1.6187491 l -1.33608,0.4015179 -0.0315,-0.740509 c 0,0 1.1359,-0.3773467 1.62709,-0.6694059 0.49119,-0.2920506 1.02618,-1.3972643 1.02618,-1.3972643 z"
           id="path9196-8-9-4-8-4-0-8-9-6"
           inkscape:connector-curvature="0"
           sodipodi:nodetypes="ccsccsc" />
        <path
           style="fill:#c8beb7;fill-opacity:1;stroke:none;stroke-width:0.08594146"
           d="m -174.29225,-11.364319 0.94565,-2.642654 c 0.14782,-0.415431 0.0445,-0.420825 0.45143,-0.312451 l 4.05836,1.080993 c 0.51398,0.08179 0.2142,0.258896 0.0184,0.625033 l -1.41912,2.6536273 c -0.2264,0.49022 -0.2229,0.3517825 -0.70788,0.1866694 l -3.15958,-1.0757017 c -0.4401,-0.12799 -0.32225,-0.236097 -0.18725,-0.515516 z"
           id="path5745-5-6-2-3-0-9-8-7-0"
           inkscape:connector-curvature="0"
           sodipodi:nodetypes="ccccccccc" />
        <g
           transform="matrix(0.77252602,0.02716579,-0.02716579,0.77252602,-173.51698,-14.245156)"
           style="fill:#007280;fill-opacity:1;fill-rule:evenodd"
           id="g9577-36-7-2-17-6-9-6-8-4">
          <path
             sodipodi:nodetypes="ccccc"
             style="fill:#007280;fill-opacity:1"
             inkscape:connector-curvature="0"
             d="M 0.67062907,3.1466295 0.96315753,3.436604 C 1.4643536,2.1285285 2.9137173,3.0231678 2.3709066,3.891 L 2.767349,4.0396257 C 3.5316128,2.8534265 1.7399119,1.2088624 0.67062907,3.1466295 Z"
             class="fil0"
             id="_121731384-65-1-9-9-2-0-8-2-6" />
          <path
             sodipodi:nodetypes="zsccz"
             style="fill:#007280;fill-opacity:1"
             inkscape:connector-curvature="0"
             d="M 0.1777958,2.5586559 C -0.01275712,2.3374532 0.11748395,2.4022267 0.31580842,2.5444209 0.51413288,2.686615 0.81410198,2.8425452 1.1021572,3.1460838 L 0.96046525,3.4267024 C 0.50016423,3.0157207 0.36834871,2.7798588 0.1777958,2.5586559 Z"
             class="fil0"
             id="_121328256-8-71-6-3-2-3-3-5-7" />
          <path
             sodipodi:open="true"
             sodipodi:end="6.1852847"
             sodipodi:start="6.2071318"
             transform="matrix(0.13834256,0,0,0.13834256,0.19919495,1.7915877)"
             d="m 13.844562,12.550547 a 2.6694496,2.6694496 0 0 1 -2.444373,2.863411 2.6694496,2.6694496 0 0 1 -2.8767188,-2.428698 2.6694496,2.6694496 0 0 1 2.4129488,-2.88994 2.6694496,2.6694496 0 0 1 2.903077,2.397129"
             sodipodi:ry="2.6694496"
             sodipodi:rx="2.6694496"
             sodipodi:cy="12.753372"
             sodipodi:cx="11.182829"
             id="path3582-1-6-8-8-7-4-8-3-6"
             style="fill:#007280;fill-opacity:1;stroke:none"
             sodipodi:type="arc" />
          <path
             sodipodi:nodetypes="zsccz"
             style="fill:#007280;fill-opacity:1;fill-rule:evenodd"
             inkscape:connector-curvature="0"
             d="M 0.4247675,1.3417552 C 0.30865975,1.051719 0.40976238,1.1514637 0.55275704,1.3529974 0.69575091,1.5545312 1.0526419,2.1606454 1.2359221,2.5639276 L 0.96710859,2.750389 C 0.74796061,2.1419236 0.54087506,1.6317917 0.4247675,1.3417552 Z"
             class="fil0"
             id="_121328256-7-5-4-3-2-2-8-3-4-0" />
          <path
             sodipodi:nodetypes="zsccz"
             style="fill:#007280;fill-opacity:1;fill-rule:evenodd"
             inkscape:connector-curvature="0"
             d="M 1.44312,0.58246558 C 1.43361,0.2701971 1.521214,0.39282353 1.5594765,0.63695278 1.6013875,0.90435635 1.7053444,1.7413136 1.7506921,2.2817189 l -0.3164814,0.082874 c 0.003,-0.6467199 0.018418,-1.46985881 0.00891,-1.78212732 z"
             class="fil0"
             id="_121328256-7-9-8-05-1-8-7-2-3-9-9" />
          <path
             sodipodi:nodetypes="zsccz"
             style="fill:#007280;fill-opacity:1;fill-rule:evenodd"
             inkscape:connector-curvature="0"
             d="M 2.4423509,0.52194906 C 2.5291241,0.19808085 2.5810366,0.32015476 2.5788735,0.5833539 2.5767086,0.84655178 2.4931372,1.8976838 2.1801821,2.4013588 L 1.8869765,2.2775017 c 0.307833,-0.6143974 0.4686,-1.43168421 0.5553744,-1.75555264 z"
             class="fil0"
             id="_121328256-7-4-7-9-9-0-51-7-3-0-7" />
          <path
             sodipodi:nodetypes="zsccz"
             style="fill:#007280;fill-opacity:1;fill-rule:evenodd"
             inkscape:connector-curvature="0"
             d="M 3.6839051,1.1452392 C 3.9311577,0.7718015 3.8949861,1.029192 3.7754429,1.2636867 3.5368401,1.7317274 2.9264141,2.4275569 2.4666837,2.7714357 L 2.2400615,2.4692892 C 2.8122122,2.0577751 3.4366526,1.5186768 3.6839051,1.1452392 Z"
             class="fil0"
             id="_121328256-7-4-9-9-9-4-3-9-9-8-2-5" />
          <path
             sodipodi:nodetypes="zsccz"
             style="fill:#007280;fill-opacity:1;fill-rule:evenodd"
             inkscape:connector-curvature="0"
             d="m 4.2265513,3.0597007 c 0.4091243,-0.09358 0.2522344,0.074602 0.024419,0.1707759 C 4.0062521,3.3337885 3.127026,3.6011424 2.5719027,3.6165508 l 0.00603,-0.3830989 c 0.653125,-5.32e-4 1.239497,-0.080171 1.6486213,-0.1737512 z"
             class="fil0"
             id="_121328256-7-4-9-1-9-7-4-0-00-0-0-0-9" />
          <path
             sodipodi:nodetypes="zsccz"
             style="fill:#007280;fill-opacity:1;fill-rule:evenodd"
             inkscape:connector-curvature="0"
             d="M 3.9700033,4.2976494 C 4.2626923,4.4304234 4.1316091,4.4287597 3.9491295,4.4043056 3.7042093,4.3714838 3.1539385,4.1823832 2.7531868,4.0349335 L 2.8590012,3.7253663 C 3.4161029,4.0174147 3.677314,4.1648752 3.9700033,4.2976494 Z"
             class="fil0"
             id="_121328256-9-5-90-3-1-6-6-4-1-7" />
          <path
             inkscape:transform-center-x="-0.069049672"
             inkscape:transform-center-y="0.95298244"
             sodipodi:nodetypes="zsccz"
             style="fill:#007280;fill-opacity:1;fill-rule:evenodd"
             inkscape:connector-curvature="0"
             d="M 4.1962848,2.076334 C 4.5907234,1.8600715 4.4775437,2.0697011 4.2705883,2.2323244 4.0482794,2.4070154 3.2196806,2.935215 2.6523716,3.1218067 L 2.5483179,2.7530525 C 3.2208399,2.5503733 3.801846,2.2925963 4.1962848,2.076334 Z"
             class="fil0"
             id="_121328256-7-4-9-1-7-5-7-8-8-2-6-7-9-8" />
        </g>
        <path
           style="fill:#c8beb7;fill-opacity:1;stroke:none;stroke-width:0.08594146"
           d="m -175.66775,-9.8075683 0.51672,-0.3636207 c 0.23706,-0.228303 0.43626,-0.05379 0.71464,0.04994 l 2.81573,1.0495639 c 0.49649,0.1518609 0.29805,0.1527632 -0.021,0.4435993 l -0.69175,0.6305349 c -0.20959,0.2304089 -0.23894,0.2080924 -0.49895,0.077287 l -2.9664,-1.4924193 c -0.42749,-0.1685304 -0.14784,-0.1986938 0.13101,-0.3949203 z"
           id="path5747-9-3-1-8-0-8-6-6-5"
           inkscape:connector-curvature="0"
           sodipodi:nodetypes="ccccccccc" />
        <path
           style="fill:#c0bdba;fill-opacity:1;stroke:none;stroke-width:0.08594146"
           d="m -176.09624,-8.4396346 0.79513,-0.4478983 1.15421,0.6491055 -0.37416,0.6813252 z"
           id="path5747-0-7-9-8-0-24-5-8-2-3"
           inkscape:connector-curvature="0"
           sodipodi:nodetypes="ccccc" />
        <g
           id="g6434-0-6-7-9-0-9-1-3"
           transform="matrix(0.08565602,0.00699866,-0.00699866,0.08565602,-324.59162,-84.946768)">
          <path
             inkscape:connector-curvature="0"
             style="fill:#bca2c1;fill-opacity:1;fill-rule:evenodd;stroke:none"
             id="path4273-3-6-2-6-7-9-9-0-2-8"
             d="m 1598.5322,770.62107 c -0.1399,4.3178 2.8265,6.1428 2.8265,6.1428 0,0 4.1491,9.7876 -4.5437,20.1674 -8.6928,10.3799 -29.9943,14.1558 -29.9943,14.1558 l -6.5,0.5097 c 0,0 -11.4798,3.8714 -7.2628,-20.406 4.2172,-24.2773 26.7282,-28.9574 26.7282,-28.9574" />
          <path
             inkscape:connector-curvature="0"
             style="fill:#d7acd7;fill-opacity:1;stroke:none"
             id="path4019-91-4-4-6-9-7-6-0-3"
             d="m 1596.6598,799.61067 c 2.9002,1.8471 6.1394,1.823 7.235,-0.054 1.0955,-1.8769 -1.272,-8.6045 -4.1722,-10.4516 -2.9002,-1.8471 -5.8533,2.2849 -6.9489,4.1617 -1.0214,1.7498 0.7957,4.1219 3.3882,6.0048" />
          <path
             inkscape:connector-curvature="0"
             style="fill:#d7acd7;fill-opacity:1;stroke:none"
             id="path4019-9-4-3-4-0-5-6-8-7-7"
             d="m 1577.6673,810.05227 c 1.9438,2.8363 4.9332,4.084 6.6768,2.787 1.7438,-1.2971 2.2034,-8.4143 0.2596,-11.2506 -1.944,-2.8363 -6.2807,-0.1928 -8.0244,1.1042 -1.6255,1.2093 -0.8839,4.1039 0.7628,6.8525" />
          <path
             inkscape:connector-curvature="0"
             style="fill:#d7acd7;fill-opacity:1;stroke:none"
             id="path4019-9-8-9-4-2-4-0-0-7-3-9"
             d="m 1562.6327,814.86367 c 1.3799,2.542 3.8926,3.8283 5.6124,2.8731 1.7199,-0.9552 3.0236,-6.9138 1.6438,-9.4558 -1.3799,-2.542 -5.5842,-0.6569 -7.304,0.2983 -1.6034,0.8905 -1.3045,3.387 -0.1789,5.8318" />
        </g>
        <path
           inkscape:connector-curvature="0"
           style="fill:#9b9b9b;fill-opacity:1;fill-rule:evenodd;stroke:none;stroke-width:0.06169453"
           id="path4310-7-0-41-0-33-3-8-9-1-3"
           d="m -198.98057,-7.3106387 c -0.0873,0.068002 -0.77034,1.5061978 -1.36549,1.9398768 -0.59521,0.4336582 -2.01899,0.6950891 -2.01899,0.6950891 l 0.56349,0.8589075 1.89996,-0.8479551 2.11834,-1.017938 z" />
        <path
           inkscape:connector-curvature="0"
           style="fill:#979797;fill-opacity:1;fill-rule:evenodd;stroke:none;stroke-width:0.06169453"
           id="path4408-6-5-1-9-7-0-0-1-7"
           d="m -178.92957,-11.661141 2.26477,1.03715 0.92449,0.137167 -0.18239,0.656047 c 0,0 -2.34639,-0.464703 -2.53564,-0.450203 -0.18925,0.01451 -1.9884,-0.411107 -1.9884,-0.411107 l -0.37815,-2.117039" />
        <path
           inkscape:connector-curvature="0"
           style="fill:#8a7a7a;fill-opacity:1;stroke:none;stroke-width:0.06169453"
           id="path3979-8-4-0-7-6-7-0-9-3-9-8"
           d="m -175.41762,-18.005945 a 0.75334916,0.87075009 72.494432 1 0 -0.43202,0.253583" />
        <path
           inkscape:connector-curvature="0"
           style="display:inline;fill:#ffffff;fill-opacity:1;fill-rule:evenodd;stroke:#000000;stroke-width:0.162;stroke-miterlimit:4;stroke-dasharray:none"
           id="path4095-8-8-7-8-5-4-9-3-0-7"
           d="m -176.63359,-18.756814 c -0.20744,-0.183175 -2.28915,0.733883 -3.91915,1.119066 -1.62999,0.385167 -5.53357,0.926433 -6.59161,1.180538 -3.17659,0.954597 -5.59952,-0.613162 -7.83805,-0.74943 -2.15734,-0.131312 -3.37996,-0.32561 -4.51372,0.03255 -1.22994,1.452006 -1.86317,2.574148 -1.87089,4.725136 0.13045,1.637778 1.59489,1.994502 1.80371,4.1435601 l 0.28974,2.9818491 c 0.0547,0.5626007 -0.74041,1.3776417 -1.2433,1.7109419 l -1.98147,1.3133103 c 0.0826,0.1819682 0.35961,0.6809631 0.35961,0.6809631 l 3.4217,-1.6464277 3.26768,-3.3548024 c 3.7227,0.2266115 8.17431,-0.1940409 8.77603,-0.102838 1.90064,-0.6622387 4.36215,-1.7938854 5.11837,-1.9583007 1.61624,0.3903124 5.18002,-0.2346548 5.18002,-0.2346548 l 0.1724,-0.5751648 c 0,0 -0.93222,0.00997 -1.80106,-0.1099854 -1.26406,-0.1744968 -1.19379,-0.029695 -1.93318,-1.0516817 0.85184,-0.82084 2.22291,-2.129156 2.22291,-2.129156 0,0 2.6224,-1.14149 2.45798,-1.390025 -0.16445,-0.248574 -1.32712,-2.93159 -1.32712,-2.93159 z"
           sodipodi:nodetypes="czcsccsssccccccccsccccc" />
        <path
           inkscape:connector-curvature="0"
           style="opacity:0.76315792;fill:#000000;fill-opacity:1;stroke:none;stroke-width:0.06169453"
           id="path3119-3-0-9-8-2-4-9-4-3-5-4"
           d="m -175.07647,-17.300331 c -0.0251,-0.522517 -0.34916,-0.997903 -0.78153,-0.795044 -0.41981,0.196984 -0.81379,0.227416 -0.90567,0.897792 -0.0685,0.500075 -0.0554,1.305088 0.66755,1.132484 0.72932,-0.09652 1.04472,-0.712715 1.01965,-1.235232 z" />
        <path
           style="fill:#f7f7f7;fill-opacity:1;fill-rule:evenodd;stroke:#cccccc;stroke-width:0.162;stroke-miterlimit:4;stroke-dasharray:none;stroke-opacity:1"
           d="m -211.52599,-26.412573 c 6.6938,1.612835 30.40164,1.871081 28.54543,8.580361 -1.24884,-1.270661 -0.38913,-1.330188 -3.59946,-2.779038 -3.23733,-1.461027 -7.30232,-1.90036 -11.157,-1.618802 -3.35719,0.245224 -12.44191,3.122363 -17.38734,-1.184169 1.48107,-1.404099 2.19277,-2.065246 3.59837,-2.998352 z"
           id="path4245-8-9-8-3-7-4-8-7-6-1"
           inkscape:connector-curvature="0"
           sodipodi:nodetypes="ccsscc" />
        <path
           d="m -185.19726,-16.840551 -1.47305,1.902621 c -0.48992,0.616711 -0.96109,0.788813 -1.61153,0.596395 -0.6141,-0.05673 -1.61643,-0.0959 -3.25219,-0.07553 -0.79093,0.0098 -0.86573,0.894976 -1.16712,1.323746 -0.17812,0.304896 -1.25512,-0.137215 -2.81194,-0.608673 -1.08313,-0.327992 -0.14049,-2.102658 1.22124,-3.451128 2.17412,0.0556 5.75146,0.377223 9.09459,0.312569 z"
           id="path3201-7-2-7-8-8-7-3-7-9"
           style="fill:#242424;fill-opacity:1;fill-rule:evenodd;stroke:none;stroke-width:0.06169453"
           inkscape:connector-curvature="0"
           sodipodi:nodetypes="cccscscc" />
        <path
           d="m -200.87379,-15.123749 c 0.10169,0.04815 0.15852,0.141057 0.26394,0.198397 0.91278,0.496587 1.9137,1.306294 2.63113,2.208353 0.199,0.250301 0.18876,0.360542 -0.0306,0.615788 l -0.93432,1.161523 0.59939,2.0897727 c 0.16427,0.5726655 0.37933,1.2238784 0.25531,1.6145175 -0.24279,0.1660228 -0.62181,0.2602318 -1.04312,0.2444691 -0.21756,-0.127627 -0.30905,-0.3175126 -0.30905,-0.3175126 l -0.42943,-1.537561 -1.52221,-3.0630317 c -0.0941,-1.730879 0.0269,-1.70703 0.51897,-3.214715 z"
           id="path3207-2-7-5-9-9-2-2-7-0"
           style="fill:#000000;fill-rule:evenodd;stroke:none;stroke-width:0.06169453"
           inkscape:connector-curvature="0"
           sodipodi:nodetypes="cscccscccccc" />
        <path
           d="m -178.52336,-12.025657 c 0,0 -0.16429,0.06346 -0.84479,-0.04859 -0.37371,-0.143249 -0.58344,0.402961 -1.14307,0.769004 -0.36115,0.236237 -0.0665,0.515278 -0.0665,0.515278 l 0.25498,0.253049 0.4202,0.297394 z"
           id="path3213-8-62-5-2-0-4-6-4-9"
           style="fill:#000000;fill-rule:evenodd;stroke:none;stroke-width:0.06169453"
           inkscape:connector-curvature="0"
           sodipodi:nodetypes="ccscccc" />
        <path
           inkscape:connector-curvature="0"
           style="opacity:0.76315792;fill:#000000;fill-opacity:1;stroke:none;stroke-width:0.06169453"
           id="path3119-3-0-1-9-8-0-8-5-0-8"
           d="m -176.75254,-17.007187 c -0.0583,-0.719501 -0.63106,-1.382766 -1.37101,-1.116123 -0.71852,0.25891 -1.39733,0.289443 -1.53652,1.208979 -0.10385,0.685938 -0.0581,1.793682 1.18409,1.577019 1.2553,-0.111796 1.78168,-0.950379 1.72344,-1.669875 z" />
        <path
           inkscape:connector-curvature="0"
           style="fill:#ffffff;fill-opacity:1;stroke:none;stroke-width:0.06169453"
           id="path3121-3-74-5-9-2-8-1-2-6-8"
           d="m -177.53702,-16.199583 a 0.87235822,0.89659047 78.313826 1 0 -0.58752,0.241292" />
        <path
           style="fill:#ffffff;fill-rule:evenodd;stroke:#000000;stroke-width:0.162;stroke-miterlimit:4;stroke-dasharray:none"
           d="m -199.94908,-16.457406 c 0,0 -2.57528,-0.447546 -4.3124,0.156347 -4.28964,1.299376 -4.10113,8.4912234 -8.54654,8.2929289 -1.66625,-0.1372183 -4.27988,-1.4450552 -3.80347,-3.1907559 0.48573,-1.779708 2.64808,-3.222618 3.15945,-1.936991 0.51138,1.285628 1.3627,0.351609 1.96172,0.609684 0.599,0.258092 0.65133,-0.954623 -0.33652,-1.250739 -0.98786,-0.296116 -1.51608,-0.31039 -1.51608,-0.31039 -1.90722,-0.239202 -3.77598,1.597653 -4.01478,3.214466 -0.27886,2.1000647 3.4294,3.8803419 5.76174,3.4015613 4.06952,-1.6782174 3.7469,-6.6747033 7.72089,-8.3060833 1.43787,-0.554408 3.41583,0.01763 3.41583,0.01763"
           id="path13440-2-0-3-0-3-2-4-6-4-5"
           inkscape:connector-curvature="0"
           sodipodi:nodetypes="cccssssccccc" />
        <path
           d="m -177.12107,-13.007733 c 0.52394,0.126889 1.45527,-0.204354 1.88208,-0.461945 0.47071,-0.284106 0.49238,-0.604882 0.49984,-0.926834 -0.1233,-0.392339 -0.28519,-0.624348 -0.43135,-0.736737 -0.24384,-0.187458 -0.33424,-0.281803 -0.73481,-0.208783 l -1.3393,0.446542 c -0.36928,0.270935 -0.75366,0.579716 -0.78315,1.08231 0.23022,0.387176 0.44747,0.795806 0.90669,0.805447 z"
           id="path3913-7-9-9-90-4-5-2-8-5-7-8"
           style="fill:#bca2c1;fill-opacity:1;fill-rule:evenodd;stroke:none;stroke-width:0.06169453"
           inkscape:connector-curvature="0"
           sodipodi:nodetypes="cscscccc" />
        <path
           inkscape:connector-curvature="0"
           style="fill:#000000;fill-opacity:1;stroke:none;stroke-width:0.06169453"
           id="path3985-6-1-6-3-2-5-0-8-4-4"
           d="m -176.79196,-14.005982 a 0.41508963,0.26289009 25.700929 1 0 -0.22668,-0.06576" />
        <path
           inkscape:connector-curvature="0"
           style="fill:#000000;fill-opacity:1;stroke:none;stroke-width:0.06169453"
           id="path3985-1-5-8-5-9-8-6-6-7-8-3"
           d="m -175.75322,-14.427495 a 0.41508963,0.26289009 88.092277 1 0 -0.0468,-0.231327" />
        <path
           d="m -194.12329,-5.1958442 c 0,0 0,0 0,0 0,0 0,0 0,0 0,0 0,0 0,0 0,0 0,0 0,0 z"
           id="path4279-6-1-0-6-2-3-9-5-7"
           style="display:inline;fill:#000000;fill-rule:evenodd;stroke:none;stroke-width:0.06169453"
           inkscape:connector-curvature="0" />
        <path
           d="m -182.44339,-8.7905008 -1.08408,-0.8703944 -0.79597,-2.6301928 c -0.18934,-0.625571 -2.42791,0.979689 -1.87382,1.756878 l 1.21343,1.702018 -1.8579,1.4675527 c -0.76559,0.6047391 0.71992,0.583971 0.71992,0.583971 l 2.66261,-1.1161693 0.84092,-0.4056291 c 0.11235,-0.1253396 0.6505,-0.086485 0.17489,-0.4880341 z"
           id="path3469-1-2-3-4-5-1-4-1-6-6-8-1"
           style="display:inline;fill:#000000;fill-rule:evenodd;stroke:none;stroke-width:0.06169453"
           inkscape:connector-curvature="0"
           sodipodi:nodetypes="ccsscscccc" />
        <path
           inkscape:connector-curvature="0"
           style="fill:#000000;fill-rule:evenodd;stroke:none;stroke-width:0.06169453"
           id="path4261-6-8-8-8-7-2-2-8-2-3"
           d="m -176.76297,-17.905984 c 0.005,0.01396 0.0636,0.004 0.16469,0.0044 0.0505,1.38e-4 0.11178,0.0037 0.18038,0.01618 0.0685,0.01333 0.14444,0.03662 0.21975,0.07653 0,0 0,0 0,0 0.0702,0.03701 0.14032,0.08896 0.20238,0.156247 0.062,0.06726 0.11595,0.149852 0.1504,0.243723 0,0 0,0 0,0 0.0607,0.163709 0.062,0.369821 -0.0197,0.547969 -0.016,0.05278 -0.0383,0.103703 -0.0662,0.151238 -0.0671,0.11393 -0.1626,0.201893 -0.26652,0.252521 0,0 0,0 0,0 -0.13536,-0.421097 -0.26057,-0.785679 -0.36208,-1.044895 -0.10151,-0.259212 -0.17924,-0.413005 -0.20304,-0.404632 -0.0238,0.0084 0.0127,0.178776 0.10178,0.460479 0.0891,0.281686 0.23089,0.674747 0.40095,1.120571 0,0 0,0 0,0 0.16973,-0.0481 0.33041,-0.142199 0.45499,-0.272536 0.052,-0.05437 0.0965,-0.113717 0.13244,-0.176302 0.10475,-0.236627 0.0946,-0.498507 0.007,-0.706154 0,0 0,0 0,0 -0.0503,-0.118592 -0.12388,-0.217992 -0.20639,-0.295542 -0.0825,-0.07755 -0.17393,-0.133288 -0.26343,-0.169525 0,0 0,0 0,0 -0.0962,-0.03871 -0.18864,-0.05478 -0.26925,-0.0581 -0.0806,-0.0034 -0.14945,0.006 -0.20377,0.01918 -0.10864,0.02635 -0.15926,0.06402 -0.15447,0.07793 z" />
        <path
           inkscape:connector-curvature="0"
           style="fill:#c1c1c1;fill-opacity:1;stroke:none;stroke-width:0.06169453"
           id="path4421-9-37-2-3-9-0-1-5-7-6-8"
           d="m -175.66195,-17.548976 c 0.18963,-0.193955 0.0384,-0.342781 -0.16465,-0.49593 -0.20318,-0.153147 -0.52157,-0.120079 -0.71121,0.07386 -0.18961,0.193958 -0.26591,0.448503 -0.0628,0.60164 0.12293,0.09267 0.38237,0.147465 0.54601,0.10129" />
        <path
           inkscape:connector-curvature="0"
           style="fill:#000000;fill-rule:evenodd;stroke:none;stroke-width:0.06169453"
           id="path4423-2-4-8-2-8-1-66-4-6-0-0-0"
           d="m -176.51916,-18.166605 c 0.002,0.01452 0.0718,0.01462 0.1765,0.03664 0.10472,0.02208 0.24638,0.07115 0.36871,0.1717 0.006,0.005 0.0119,0.0099 0.0176,0.01494 0.11531,0.100602 0.18524,0.226066 0.22438,0.320876 0.0391,0.09481 0.0525,0.160026 0.0667,0.159079 0.0141,-9.69e-4 0.0274,-0.07045 0.004,-0.18066 -0.0239,-0.110215 -0.0922,-0.2611 -0.22466,-0.378694 -0.007,-0.006 -0.0134,-0.01173 -0.0204,-0.01736 -0.0708,-0.05808 -0.14893,-0.09918 -0.2233,-0.125137 -0.0744,-0.02596 -0.14489,-0.03698 -0.20379,-0.03909 -0.11783,-0.0042 -0.18709,0.0232 -0.18526,0.03769 z" />
        <path
           inkscape:connector-curvature="0"
           style="opacity:0.76315792;fill:#000000;fill-opacity:1;stroke:none;stroke-width:0.06169453"
           id="path3119-3-9-5-49-8-8-1-9-8-6-9"
           d="m -177.11075,-17.07998 c -0.13088,-0.709877 -0.76798,-1.311644 -1.47709,-0.971363 -0.68859,0.330426 -1.36073,0.429621 -1.40601,1.358548 -0.0338,0.69294 0.12407,1.790325 1.33788,1.448834 1.23749,-0.238517 1.67614,-1.126139 1.54522,-1.836019 z" />
        <path
           inkscape:connector-curvature="0"
           style="fill:#ffffff;fill-opacity:1;stroke:none;stroke-width:0.06169453"
           id="path3121-3-4-8-0-7-9-1-6-6-6-7"
           d="m -177.56669,-16.273498 a 0.87235816,0.89659036 72.494432 1 0 -0.56001,0.299615" />
        <path
           inkscape:connector-curvature="0"
           style="fill:#000000;fill-opacity:1;stroke:none;stroke-width:0.06169453"
           id="path3123-67-3-96-9-7-1-3-7-2-4-9"
           d="m -178.04593,-16.32377 a 0.24379734,0.25001281 72.494432 1 0 -0.0207,0.01234" />
        <g
           style="display:inline"
           id="g4430-4-7-3-3-6-6-4-6-9"
           transform="matrix(-0.10097396,0.03184775,0.02798509,0.08872729,-163.70358,-44.738379)">
          <path
             inkscape:connector-curvature="0"
             style="fill:#c1c1c1;fill-opacity:1;stroke:none"
             id="path4421-8-9-9-3-2-3-4-7-2-3"
             transform="translate(-0.71706658,-0.17926664)"
             d="m 204.52206,237.88764 c -3.70653,-1.76866 -2.16678,-4.35904 0.12206,-7.22317 2.28885,-2.86413 7.14906,-3.75219 10.85558,-1.98354 3.70652,1.76865 6.02101,4.8072 3.73216,7.67133 -1.3849,1.73298 -4.96372,3.53396 -7.59789,3.6059" />
          <path
             inkscape:connector-curvature="0"
             style="fill:#000000;fill-rule:evenodd;stroke:none"
             id="path4423-6-5-0-1-0-8-7-9-8-2"
             d="m 202.21278,236.5559 c 0.0877,-0.10655 0.94392,0.51754 2.45906,1.18477 0.75757,0.33362 1.68484,0.66914 2.74376,0.90314 1.05892,0.23399 2.24906,0.3651 3.49065,0.30797 0.13717,-0.006 0.27351,-0.0148 0.4089,-0.0255 2.38409,-0.18577 4.43,-1.04989 5.79954,-1.83139 1.36953,-0.78151 2.12341,-1.44084 2.21805,-1.34571 0.0473,0.0476 -0.0803,0.27305 -0.38361,0.62059 -0.30327,0.34754 -0.78561,0.81559 -1.4578,1.30548 -0.67219,0.48988 -1.5365,0.99984 -2.56919,1.41264 -1.03268,0.4128 -2.23393,0.7263 -3.52655,0.83413 -0.14692,0.0121 -0.29485,0.0216 -0.44364,0.0284 -1.34671,0.0613 -2.63222,-0.10958 -3.75611,-0.41145 -1.12389,-0.30187 -2.08591,-0.73226 -2.84397,-1.16787 -0.75806,-0.43562 -1.31445,-0.87415 -1.66972,-1.20628 -0.35526,-0.33214 -0.51322,-0.55566 -0.46937,-0.60894 z" />
        </g>
        <path
           style="fill:#a05a2c;fill-rule:evenodd;stroke:none;stroke-width:0.06169453"
           d="m -176.61269,-18.499172 c 0.0725,-0.484652 -0.17668,-1.290519 -1.38447,-1.514706 -1.20428,-0.223555 -3.20341,0.07765 -3.81517,0.891659 -0.66329,0.882629 -1.40595,1.710804 -1.38797,1.771797 0.26152,0.886516 2.63802,1.128094 2.63802,1.128094 l 0.1228,1.108139 -0.009,0.806419 0.52932,0.160711 0.0913,-0.89605 -0.1377,-1.242668 -0.0235,-0.99983 0.43539,-0.626162 1.94995,-0.648563 z"
           id="path11106-2-4-7-3-3-6-4-3-9-4"
           inkscape:connector-curvature="0"
           sodipodi:nodetypes="cssscccccccccc" />
        <path
           style="fill:#d38d5f;fill-opacity:1;stroke:none;stroke-width:0.06169453"
           d="m -177.76579,-19.991693 c 0,0 0.89149,0.165756 1.02458,0.419668 0.14416,0.275014 0.20071,0.583464 0.16999,0.739842 -0.0305,0.156373 0.0206,0.360261 0.0206,0.360261 l -0.95353,-0.35609 -0.34484,-0.438011 -1.96351,0.226598 -1.0257,-0.63359 c -0.23829,-0.147207 1.42118,-0.437981 1.42118,-0.437981 l 1.49607,0.08404 z"
           id="path11928-8-4-5-74-6-4-9-6-3"
           inkscape:connector-curvature="0"
           sodipodi:nodetypes="cssccccsccc" />
        <path
           style="fill:#b3b3b3;fill-rule:evenodd;stroke:none;stroke-width:0.06169453"
           d="m -176.76316,-17.206723 c 0,0 0.14656,-0.231126 -0.0118,-0.14118 -0.15832,0.08995 -0.38626,0.255181 -0.38626,0.255181 0,0 -0.008,0.482552 -0.075,0.650391 -0.0671,0.167847 -0.23324,0.530388 -0.50961,0.667492 -0.27633,0.137091 -0.91163,0.407557 -1.47069,0.157139 -0.36148,-0.161913 -0.59854,-0.544675 -0.64443,-0.690216 -0.0459,-0.145559 -0.62065,-0.297681 -0.62065,-0.297681 l -0.17612,-1.044637 c 0,0 0.27183,0.423579 0.63349,0.512099 0.0378,-0.474305 0.82174,-1.42452 1.64485,-1.237365 0.33318,0.04157 0.93955,0.103724 1.09134,0.41592 0.15179,0.31218 0.2074,0.107926 0.38618,-0.0018 0.17876,-0.109728 0.28017,0.08499 0.28017,0.08499 0,0 0.001,-0.33382 0.34736,-0.336253 0.34597,-0.0024 0.72692,0.317482 0.75753,0.414517 0.0306,0.09703 0.20024,0.550281 0.11526,0.830474 -0.085,0.280172 -0.11001,0.581443 -0.36024,0.6337 -0.25024,0.05224 -0.45236,-0.06607 -0.45236,-0.06607 -0.45126,-0.283812 -0.47128,-0.428684 -0.54913,-0.806726 z"
           id="path11090-7-0-9-0-05-3-6-2-0-7"
           inkscape:connector-curvature="0"
           sodipodi:nodetypes="cscszssccccsscsssscc" />
        <path
           style="fill:#d3eaed;fill-opacity:1;fill-rule:evenodd;stroke:none;stroke-width:0.06169453"
           d="m -177.7342,-17.600014 c 0,0 0.22015,0.190613 0.20379,0.455812 -0.0204,0.329545 0.005,0.46154 -0.25876,0.701712 -0.26945,0.245027 -0.63156,0.235508 -0.84323,0.159301 -0.31593,-0.113733 -0.3826,-0.302742 -0.39487,-0.702278 -0.0123,-0.39954 0.19139,-0.640475 0.49459,-0.73612 0.30326,-0.09563 0.62363,-0.01 0.79848,0.121573 z"
           id="path11098-3-5-4-1-3-5-3-8-7-1"
           inkscape:connector-curvature="0"
           sodipodi:nodetypes="cssszsc" />
        <path
           style="fill:#3d3d3d;fill-opacity:1;fill-rule:evenodd;stroke:none;stroke-width:0.06169453"
           d="m -177.46589,-17.391638 c 0.008,-0.0015 0.0979,0.198796 0.0534,0.570006 0,0 0,0 0,0 -0.0292,0.249819 -0.17967,0.644488 -0.57673,0.8034 -0.40256,0.16692 -1.20665,0.237385 -1.45634,-0.355997 -4.5e-4,-0.0011 -8.9e-4,-0.0021 -0.001,-0.0032 -0.22796,-0.615703 0.10497,-1.26304 0.57209,-1.419415 0.44531,-0.141066 0.82717,-0.0616 1.06936,0.07448 0,0 0,0 0,0 0.12175,0.06903 0.20667,0.14697 0.25903,0.205356 0.0605,0.05901 0.0823,0.112189 0.0823,0.121844 -0.002,0.003 -0.002,0.0027 -0.002,0.0027 0,-2e-6 1.6e-4,2.84e-4 -0.003,9.79e-4 -0.006,-0.0019 -0.0539,-0.038 -0.11099,-0.08959 -0.059,-0.04632 -0.14721,-0.109503 -0.26519,-0.163393 0,0 0,0 0,0 -0.2334,-0.107698 -0.57835,-0.155733 -0.98444,-0.01603 -0.37656,0.121849 -0.64296,0.701457 -0.46031,1.226621 2.4e-4,8.4e-4 4.8e-4,0.0017 7.3e-4,0.0025 0.13588,0.459556 0.87555,0.397237 1.25025,0.277538 0.33099,-0.109458 0.48643,-0.458912 0.53162,-0.682776 0,0 0,0 0,0 0.0669,-0.340057 0.0241,-0.551692 0.0417,-0.555072 z"
           id="path11086-0-6-9-5-2-9-3-0-2"
           inkscape:path-effect="#path-effect11088-4-9-8-1-6-5-2-4-9-4"
           inkscape:original-d="m -177.46604,-17.392434 c 0,0 0.20452,1.029012 -0.54815,1.306423 -0.75263,0.277398 -1.24656,-0.02023 -1.35433,-0.319625 -0.10777,-0.299412 -0.076,-1.127747 0.5162,-1.323018 0.9301,-0.3067 1.38628,0.33622 1.38628,0.33622 z"
           inkscape:connector-curvature="0"
           sodipodi:nodetypes="csssc" />
        <path
           style="fill:#3d3d3d;fill-opacity:1;fill-rule:evenodd;stroke:none;stroke-width:0.06169453"
           d="m -176.15412,-17.980931 c 0.002,0.01242 0.0774,-0.07292 0.24551,0.01045 0.14376,0.05782 0.29076,0.204316 0.37088,0.457253 0.0816,0.240991 0.12471,0.590708 -0.0453,0.900949 -0.0905,0.108572 -0.21022,0.124235 -0.33372,0.09653 -0.12632,-0.02833 -0.25238,-0.101342 -0.33826,-0.14776 -0.41336,-0.175274 -0.42886,-0.659088 -0.30762,-0.904759 0.12443,-0.25556 0.27244,-0.378413 0.39188,-0.43067 m 0.0145,0.01838 c 1e-5,-1e-6 1e-5,-2e-6 1e-5,-1e-6 0,1e-6 0,3e-6 -1e-5,5e-6 m 0.008,0.02194 c -0.10452,0.07314 -0.20818,0.184174 -0.31754,0.435032 -0.087,0.204903 -0.0573,0.622675 0.2612,0.729501 0.11736,0.03108 0.23001,0.09509 0.3312,0.13711 0.0931,0.03867 0.15626,0.0479 0.16866,-0.02454 0.1499,-0.252594 0.11918,-0.571838 0.0587,-0.798789 -0.0677,-0.234145 -0.16926,-0.365767 -0.28984,-0.431854 -0.11484,-0.05129 -0.21626,-0.05742 -0.21807,-0.06877"
           id="path11094-9-2-3-4-3-6-0-1-2"
           inkscape:path-effect="#path-effect11096-1-0-9-9-5-6-6-1-3-5"
           inkscape:original-d="m -176.15628,-17.980563 c 0,0 0.39441,-0.07606 0.56431,0.483797 0.10814,0.356252 0.0681,0.638636 -0.052,0.849869 -0.12008,0.211251 -0.26865,0.0404 -0.58592,-0.0819 -0.31729,-0.122324 -0.44846,-0.461882 -0.28441,-0.81713 0.15253,-0.330224 0.35801,-0.434633 0.35801,-0.434633 z"
           inkscape:connector-curvature="0"
           sodipodi:nodetypes="csszsc" />
        <path
           style="fill:#d3eaed;fill-rule:evenodd;stroke:none;stroke-width:0.06169453"
           d="m -175.73211,-16.903144 c -0.25913,0.109538 -0.44816,-0.07321 -0.53019,-0.2962 -0.0818,-0.222541 -0.0564,-0.694879 0.18018,-0.723607 0.17455,-0.02118 0.35869,0.159324 0.4251,0.420185 0.0664,0.260875 0.10156,0.524949 -0.0751,0.599622 z"
           id="path11102-4-18-9-8-6-7-2-1-0-0"
           inkscape:connector-curvature="0"
           sodipodi:nodetypes="ssszs" />
        <path
           style="fill:#ffffff;fill-opacity:1;stroke:none;stroke-width:0.06169453"
           d="m -182.28183,-16.497449 c 0.0933,0.433229 0.77458,0.608666 1.30193,0.477596 0.52735,-0.131068 0.54331,-0.855989 0.44999,-1.289217 -0.0933,-0.433227 -0.32941,-0.629046 -0.85676,-0.49796 -0.51922,0.129041 -0.871,0.655666 -0.79048,1.084939"
           id="path11819-9-12-6-0-2-3-7-1-2"
           inkscape:connector-curvature="0"
           sodipodi:nodetypes="csssc" />
        <path
           transform="matrix(-0.95368772,0.30079848,0.30079848,0.95368772,0,0)"
           sodipodi:type="arc"
           style="fill:#000000;fill-opacity:1;stroke:none;stroke-width:0.046077"
           id="path11930-4-9-9-1-6-0-8-3-1"
           sodipodi:cx="164.90889"
           sodipodi:cy="-69.739212"
           sodipodi:rx="0.54857421"
           sodipodi:ry="0.49461603"
           d="m 165.45588,-69.776793 a 0.54857421,0.49461603 0 0 1 -0.50232,0.530555 0.54857421,0.49461603 0 0 1 -0.59117,-0.450008 0.54857421,0.49461603 0 0 1 0.49586,-0.53547 0.54857421,0.49461603 0 0 1 0.59659,0.444158"
           sodipodi:start="6.2071318"
           sodipodi:end="6.1852847"
           sodipodi:open="true" />
        <path
           sodipodi:type="arc"
           style="fill:#917597;fill-opacity:1;stroke:none;stroke-width:0.0427215"
           id="path13431-24-79-0-0-5-1-9-7-7"
           sodipodi:cx="140.24699"
           sodipodi:cy="-115.87178"
           sodipodi:rx="0.61280286"
           sodipodi:ry="0.6253041"
           d="m 140.85803,-115.91929 a 0.61280286,0.6253041 0 0 1 -0.56114,0.67074 0.61280286,0.6253041 0 0 1 -0.66038,-0.56891 0.61280286,0.6253041 0 0 1 0.55392,-0.67695 0.61280286,0.6253041 0 0 1 0.66643,0.56151"
           sodipodi:start="6.2071318"
           sodipodi:end="6.1852847"
           sodipodi:open="true"
           transform="matrix(-0.82688725,0.56236774,0.56236774,0.82688725,0,0)" />
        <path
           style="fill:#525f74;fill-opacity:1;fill-rule:evenodd;stroke:none;stroke-width:0.06169453"
           d="m -184.29729,-19.659646 c -7.24063,1.860366 -22.34786,1.906909 -28.98562,4.271018 -0.574,-1.277462 -0.65586,-2.00489 -0.7478,-2.481807 -0.28246,-1.465171 1.2803,-0.755697 3.78622,-1.032254 3.27755,-0.361704 10.49297,-1.886946 12.57252,-2.10155 2.07951,-0.214592 6.97939,0.446107 8.05349,0.705777 1.07411,0.259705 7.18928,0.09429 5.32121,0.638799 z"
           id="path4249-1-5-2-5-9-6-6-1-7-5"
           inkscape:connector-curvature="0"
           sodipodi:nodetypes="ccsszsc" />
        <path
           style="fill:#000000;fill-rule:evenodd;stroke:none;stroke-width:0.06169453"
           d="m -213.27211,-14.124301 c 0,0 1.12567,-0.415491 1.55159,0.02206 0.42593,0.437566 1.72189,1.157356 1.41068,1.454561 -0.40494,0.289049 -1.20417,0.368563 -2.20205,0.553149 -0.28677,0.05304 -0.73912,-0.644504 -0.91681,-0.977681 -0.34753,-0.448089 0.15659,-1.052084 0.15659,-1.052084 z"
           id="path13444-4-4-9-7-8-6-5-2-1"
           inkscape:connector-curvature="0"
           sodipodi:nodetypes="cscscc" />
        <path
           style="fill:#a3c7ef;fill-opacity:1;fill-rule:evenodd;stroke:none;stroke-width:0.06169453"
           d="m -178.41925,-12.075233 c 0,0 -2.69563,-0.976802 -3.71827,-2.035714 -1.02267,-1.058895 -1.40995,-2.428935 -2.27369,-2.809448 -6.24642,-3.038986 -19.96848,-3.035017 -29.65597,-1.371757 -4.38474,0.752825 -7.94295,1.84558 -9.60728,3.149947 2.335,-4.278016 2.41476,-4.559762 4.5184,-8.052383 0.92704,-1.539163 29.84526,-0.257477 33.52756,2.171558 1.29085,0.76794 3.04654,2.114098 2.66835,3.478738 0,0 -0.49301,0.698296 0.79773,2.240347 1.29073,1.542052 3.74317,3.228712 3.74317,3.228712 z"
           id="path4241-0-4-3-6-4-0-1-4-6-7"
           inkscape:connector-curvature="0"
           sodipodi:nodetypes="cscscsccsc" />
        <path
           transform="matrix(-0.95368772,0.30079848,0.30079848,0.95368772,0,0)"
           sodipodi:type="arc"
           style="fill:#000000;fill-opacity:1;stroke:none;stroke-width:0.03081015"
           id="path11930-5-4-2-8-5-2-8-9-4-4"
           sodipodi:cx="162.62016"
           sodipodi:cy="-69.478424"
           sodipodi:rx="0.3372483"
           sodipodi:ry="0.35972703"
           d="m 162.95644,-69.505756 a 0.3372483,0.35972703 0 0 1 -0.30882,0.385864 0.3372483,0.35972703 0 0 1 -0.36343,-0.327284 0.3372483,0.35972703 0 0 1 0.30484,-0.389439 0.3372483,0.35972703 0 0 1 0.36677,0.32303"
           sodipodi:start="6.2071318"
           sodipodi:end="6.1852847"
           sodipodi:open="true" />
        <path
           d="m -185.13941,-16.780845 -1.35108,0.629039 c -0.45323,0.140904 -0.91421,0.160285 -1.57623,0.06847 -0.61755,-0.05221 -1.62239,-0.122762 -3.25714,-0.214596 -0.79051,-0.04441 -1.16013,1.099935 -1.43602,1.200235 -0.23639,0.05298 0.20918,0.0027 -1.24579,-0.05839 -0.4251,-0.01786 -0.75349,-0.952211 -0.97178,-0.987453 -0.3033,-0.04899 0.25613,-0.644039 0.66882,-1.051253 2.17778,0.144886 5.81316,0.281603 9.16922,0.413952 z"
           id="path3201-9-0-1-0-5-2-5-2-5-1"
           style="fill:#000000;fill-opacity:1;fill-rule:evenodd;stroke:none;stroke-width:0.06169453"
           inkscape:connector-curvature="0"
           sodipodi:nodetypes="cccscsscc" />
        <path
           style="fill:#242424;fill-opacity:1;fill-rule:evenodd;stroke:none;stroke-width:0.06169453"
           d="m -213.31398,-14.168695 c 0,0 0.45212,0.793886 0.87805,1.231449 0.42593,0.437548 2.3162,-0.02021 2.005,0.277015 -0.40493,0.28905 -1.12497,0.336731 -2.12282,0.521303 -0.28681,0.05305 -0.73913,-0.644506 -0.91683,-0.977682 -0.34752,-0.448088 0.1566,-1.052085 0.1566,-1.052085 z"
           id="path13444-4-6-6-6-4-3-4-5-2-7"
           inkscape:connector-curvature="0"
           sodipodi:nodetypes="cscscc" />
        <path
           style="opacity:0.33467742;fill:#636385;fill-opacity:1;stroke:none;stroke-width:0.12093323"
           d="m -186.47221,-6.2574106 -14.79358,-6.9420624 0.78249,-2.836968 1.28086,-1.39666 z"
           id="path4608-6-6-0-3-5-49-4-2-5-7-0-1"
           inkscape:connector-curvature="0"
           sodipodi:nodetypes="ccccc" />
        <path
           style="opacity:0.33467742;fill:#999999;fill-opacity:1;stroke:none;stroke-width:0.12093323"
           d="m -187.10835,-6.7171469 -11.78981,-10.4156211 3.74777,0.759834 7.14203,1.935529 9.29328,2.508994 z"
           id="path4608-6-6-0-3-5-49-5-5-48-1-4-2-1"
           inkscape:connector-curvature="0"
           sodipodi:nodetypes="cccccc" />
        <path
           style="opacity:0.33467742;fill:#999999;fill-opacity:1;stroke:none;stroke-width:0.12093323"
           d="m -214.64742,-18.427998 19.99009,-4.547616 -24.5221,-0.574973 z"
           id="path4608-6-6-0-3-5-49-5-9-3-2-1-9-9-1"
           inkscape:connector-curvature="0"
           sodipodi:nodetypes="cccc" />
        <path
           style="opacity:0.33467742;fill:#676484;fill-opacity:1;stroke:none;stroke-width:0.12093323"
           d="m -190.98655,-18.570631 -21.56392,-0.122325 16.62776,-4.311938 z"
           id="path4608-6-6-0-3-5-49-5-9-7-2-3-1-9-0-7"
           inkscape:connector-curvature="0"
           sodipodi:nodetypes="cccc" />
        <path
           style="opacity:0.33467742;fill:#618f6a;fill-opacity:1;stroke:none;stroke-width:0.12093323"
           d="m -190.92179,-18.383678 5.83485,-2.219851 c -3.21292,-1.65938 -6.8644,-2.222362 -10.76575,-2.160671 z"
           id="path4608-6-6-0-3-5-49-5-9-5-7-8-1-4-9-0"
           inkscape:connector-curvature="0"
           sodipodi:nodetypes="cccc" />
        <path
           style="opacity:0.33467742;fill:#618f6a;fill-opacity:1;stroke:none;stroke-width:0.12093323"
           d="m -187.41909,-14.248237 8.6546,2.364114 c -4.18349,-2.074722 -3.73812,-2.993678 -4.71531,-4.208997 -0.5153,-0.640887 -1.18056,-0.990255 -1.44387,-0.996696 z"
           id="path4608-6-6-0-3-5-49-5-9-5-6-0-5-9-5-9-4"
           inkscape:connector-curvature="0"
           sodipodi:nodetypes="ccscc" />
      </g>
    </g>
  </g>
</svg>
