<?xml version="1.0" encoding="UTF-8" standalone="no"?>
<!-- Created with Inkscape (http://www.inkscape.org/) -->

<svg
   xmlns:dc="http://purl.org/dc/elements/1.1/"
   xmlns:cc="http://creativecommons.org/ns#"
   xmlns:rdf="http://www.w3.org/1999/02/22-rdf-syntax-ns#"
   xmlns:svg="http://www.w3.org/2000/svg"
   xmlns="http://www.w3.org/2000/svg"
   xmlns:sodipodi="http://sodipodi.sourceforge.net/DTD/sodipodi-0.dtd"
   xmlns:inkscape="http://www.inkscape.org/namespaces/inkscape"
   width="100"
   height="100"
   viewBox="0 0 26.458333 26.458334"
   version="1.1"
   id="svg13625"
   inkscape:version="0.92.1 r15371"
   sodipodi:docname="vaca3.svg">
  <defs
     id="defs13619">
    <clipPath
       clipPathUnits="userSpaceOnUse"
       id="clipPath9406-5-9-1-5-3-8-6-4">
      <rect
         style="opacity:0.73280005;fill:#ffdd55;fill-opacity:1;stroke:none;stroke-width:0.5;stroke-miterlimit:4;stroke-dasharray:none;stroke-opacity:1"
         id="rect9408-2-0-59-4-6-7-1-03"
         width="477.41364"
         height="539.93207"
         x="573.77612"
         y="244.1604" />
    </clipPath>
    <clipPath
       clipPathUnits="userSpaceOnUse"
       id="clipPath9406-5-9-1-5-3-8-6-1-2-4-4-7">
      <rect
         style="opacity:0.73280005;fill:#ffdd55;fill-opacity:1;stroke:none;stroke-width:0.5;stroke-miterlimit:4;stroke-dasharray:none;stroke-opacity:1"
         id="rect9408-2-0-59-4-6-7-1-0-9-4-9-5"
         width="477.41364"
         height="539.93207"
         x="573.77612"
         y="244.1604" />
    </clipPath>
  </defs>
  <sodipodi:namedview
     id="base"
     pagecolor="#ffffff"
     bordercolor="#666666"
     borderopacity="1.0"
     inkscape:pageopacity="0.0"
     inkscape:pageshadow="2"
     inkscape:zoom="2.7599398"
     inkscape:cx="108.57143"
     inkscape:cy="45.714286"
     inkscape:document-units="mm"
     inkscape:current-layer="layer1"
     showgrid="false"
     units="px"
     inkscape:window-width="1918"
     inkscape:window-height="1023"
     inkscape:window-x="0"
     inkscape:window-y="26"
     inkscape:window-maximized="1" />
  <metadata
     id="metadata13622">
    <rdf:RDF>
      <cc:Work
         rdf:about="">
        <dc:format>image/svg+xml</dc:format>
        <dc:type
           rdf:resource="http://purl.org/dc/dcmitype/StillImage" />
        <dc:title></dc:title>
      </cc:Work>
    </rdf:RDF>
  </metadata>
  <g
     inkscape:label="Capa 1"
     inkscape:groupmode="layer"
     id="layer1"
     transform="translate(0,-270.54165)">
    <g
       id="g13617"
       transform="matrix(1.0563517,0,0,1.0563517,269.5237,98.957089)"
       inkscape:export-xdpi="94"
       inkscape:export-ydpi="94">
      <path
         inkscape:export-ydpi="94"
         inkscape:export-xdpi="94"
         inkscape:export-filename="/home/alumno/Escritorio/video_tutorial/vaca_04B.png"
         sodipodi:nodetypes="cccccc"
         clip-path="none"
         mask="none"
         inkscape:connector-curvature="0"
         id="path6937-9-4-0-5-1-0-01-1"
         d="m -250.54412,171.34653 c -0.0377,-0.19224 -0.60689,-2.19221 -1.26005,-2.19455 -0.65315,-0.002 -1.57513,-0.0441 -1.38674,0.99399 0.18838,1.03806 0.64711,1.69286 1.37655,1.84919 0.72945,0.15627 1.45946,0.15889 1.45946,0.15889 z"
         style="display:inline;fill:#f4d7d7;fill-opacity:1;stroke:none;stroke-width:0.06593057" />
      <path
         id="path6935-0-4-61-1-9-7-6-3"
         d="m -246.53006,168.01193 c -2.50454,0.0116 -3.88245,2.87907 -3.88245,2.87907 0,0 -0.0167,4.62213 -0.52267,7.80176 -0.59355,2.52746 -4.367,4.77906 -1.08591,4.59431 l 12.54539,0.0274 h 3.05993 1.84548 l 1.56999,-4.18367 -2.93842,-1.06328 -2.3382,3.46811 c -1.52641,-1.79658 -1.68218,-5.54365 -1.64222,-6.47709 0.0396,-0.92764 0.3325,-1.6319 -0.0459,-3.24693 -0.37844,-1.61508 -1.6067,-2.00353 -5.05938,-3.47595 -0.53949,-0.23006 -1.04181,-0.32632 -1.50561,-0.32419 z"
         clip-path="none"
         mask="none"
         style="display:inline;fill:#ffffff;stroke:#000000;stroke-width:0.18419486;stroke-miterlimit:4;stroke-dasharray:none"
         inkscape:connector-curvature="0"
         sodipodi:nodetypes="ccccccccccccccc" />
      <path
         inkscape:export-ydpi="94"
         inkscape:export-xdpi="94"
         inkscape:export-filename="/home/alumno/Escritorio/video_tutorial/vaca_04B.png"
         clip-path="none"
         mask="none"
         sodipodi:nodetypes="cssccccssscc"
         inkscape:connector-curvature="0"
         id="path7012-4-2-5-1-4-8-02-7"
         d="m -246.06388,173.70935 c 0,0 -1.03775,1.49054 -1.36502,1.84252 -0.32729,0.35202 -1.22723,1.29969 -1.28206,1.43531 -0.0548,0.13566 4.05981,4.30713 3.97791,4.41553 0.18365,1.82094 -0.0122,1.81362 -0.0122,1.81362 l -7.01286,-0.0208 c -3.0851,0.0709 -0.77304,-0.79815 0.86749,-4.07797 0.23427,-0.37206 0.61947,-5.35046 0.52437,-5.94771 -0.0855,-0.53663 -0.002,-3.60552 1.13817,-3.46557 1.14056,0.13992 2.93958,-1.5109 3.28635,0.28346 0.34675,1.79433 -0.12202,3.72163 -0.12202,3.72163 z"
         style="display:inline;fill:#d5f6ff;stroke:none;stroke-width:0.06593057" />
      <path
         inkscape:export-ydpi="94"
         inkscape:export-xdpi="94"
         inkscape:export-filename="/home/alumno/Escritorio/video_tutorial/vaca_04B.png"
         clip-path="none"
         mask="none"
         sodipodi:nodetypes="cssssc"
         inkscape:connector-curvature="0"
         id="path6983-98-7-9-0-7-6-8-8"
         d="m -244.88729,172.94698 c 0,0 0.44614,1.78299 0.75254,2.05305 0.30641,0.27004 1.4585,1.48724 2.66961,1.34034 1.19282,-0.14469 1.41261,-0.85501 1.41578,-1.7387 0.003,-0.88368 0.43128,-3.17265 -0.41358,-3.29094 -0.84485,-0.11832 -4.42435,1.63625 -4.42435,1.63625 z"
         style="display:inline;fill:#000000;fill-opacity:1;stroke:#000000;stroke-width:0.0380353px;stroke-linecap:butt;stroke-linejoin:miter;stroke-opacity:1" />
      <path
         inkscape:export-ydpi="94"
         inkscape:export-xdpi="94"
         inkscape:export-filename="/home/alumno/Escritorio/video_tutorial/vaca_04B.png"
         sodipodi:nodetypes="ccsccc"
         clip-path="none"
         mask="none"
         inkscape:connector-curvature="0"
         id="path6939-3-5-1-4-3-1-4-0"
         d="m -239.77562,172.50425 c 0,0 1.00652,-2.10959 1.81337,-2.10669 0.80684,0.003 1.6908,-0.0708 1.49554,0.81221 -0.19528,0.883 -0.42663,1.11271 -1.54236,1.53133 -1.11574,0.41867 -2.03825,0.53062 -2.03825,0.53062 z"
         style="display:inline;fill:#f4d7d7;fill-opacity:1;stroke:none;stroke-width:0.06593057" />
      <path
         inkscape:export-ydpi="94"
         inkscape:export-xdpi="94"
         inkscape:export-filename="/home/alumno/Escritorio/video_tutorial/vaca_04B.png"
         clip-path="none"
         mask="none"
         sodipodi:nodetypes="csccsssc"
         inkscape:connector-curvature="0"
         id="path5154-4-0-1-7-8-0-4-4-9"
         d="m -239.83906,172.63868 c 0.65748,-1.48151 1.64061,-2.3148 2.31366,-1.41181 0.64581,0.86644 -1.36054,1.6404 -2.22168,1.77414 l -0.11412,0.28702 c 0.99658,0.31909 4.10247,-0.49104 3.97285,-1.93357 -0.0811,-0.90159 -0.48175,-1.50083 -1.12048,-1.6153 -0.38324,-0.0687 -0.85191,0.0374 -1.38977,0.3563 -1.27969,0.75886 -1.535,1.43775 -1.52452,2.3133"
         style="display:inline;fill:#ffffff;fill-opacity:1;stroke:#000000;stroke-width:0.18419486;stroke-miterlimit:4;stroke-dasharray:none;stroke-opacity:1" />
      <path
         inkscape:export-ydpi="94"
         inkscape:export-xdpi="94"
         inkscape:export-filename="/home/alumno/Escritorio/video_tutorial/vaca_04B.png"
         clip-path="none"
         mask="none"
         sodipodi:open="true"
         sodipodi:end="6.1852847"
         sodipodi:start="6.2071318"
         transform="rotate(0.20537645)"
         d="m -239.58471,173.34406 a 2.1900229,2.2668657 0 0 1 -2.00537,2.43157 2.1900229,2.2668657 0 0 1 -2.36007,-2.06242 2.1900229,2.2668657 0 0 1 1.97959,-2.4541 2.1900229,2.2668657 0 0 1 2.38169,2.03561"
         sodipodi:ry="2.2668657"
         sodipodi:rx="2.1900229"
         sodipodi:cy="173.5163"
         sodipodi:cx="-241.7684"
         id="path6985-4-6-77-6-6-9-91-5"
         style="display:inline;fill:#ffffff;fill-opacity:1;stroke:none;stroke-width:0.0380353"
         sodipodi:type="arc" />
      <path
         inkscape:export-ydpi="94"
         inkscape:export-xdpi="94"
         inkscape:export-filename="/home/alumno/Escritorio/video_tutorial/vaca_04B.png"
         clip-path="none"
         mask="none"
         sodipodi:open="true"
         sodipodi:end="6.1852847"
         sodipodi:start="6.2071318"
         d="m -245.18493,173.19539 a 2.1900229,2.2668657 0 0 1 -2.00537,2.43158 2.1900229,2.2668657 0 0 1 -2.36007,-2.06242 2.1900229,2.2668657 0 0 1 1.97959,-2.45411 2.1900229,2.2668657 0 0 1 2.38169,2.03562"
         sodipodi:ry="2.2668657"
         sodipodi:rx="2.1900229"
         sodipodi:cy="173.36763"
         sodipodi:cx="-247.36862"
         id="path6985-6-2-3-1-2-1-2-7-2"
         style="display:inline;fill:#ffffff;fill-opacity:1;stroke:none;stroke-width:0.0380353"
         sodipodi:type="arc"
         transform="rotate(0.20537645)" />
      <path
         inkscape:export-ydpi="94"
         inkscape:export-xdpi="94"
         inkscape:export-filename="/home/alumno/Escritorio/video_tutorial/vaca_04B.png"
         clip-path="none"
         mask="none"
         sodipodi:nodetypes="csccsssc"
         inkscape:connector-curvature="0"
         id="path5154-0-4-7-2-2-0-5-1"
         d="m -250.73502,171.6571 c -0.38639,-1.57412 -1.20748,-2.56748 -2.02898,-1.79706 -0.78826,0.73924 1.05051,1.85429 1.87466,2.13754 l 0.0618,0.30265 c -1.03719,0.13864 -3.95194,-1.2056 -3.5704,-2.6028 0.23846,-0.87324 0.73844,-1.3926 1.38735,-1.39282 0.38934,-1.4e-4 0.83203,0.18677 1.30533,0.59541 1.12612,0.97228 1.25792,1.68551 1.09347,2.54555"
         style="display:inline;fill:#ffffff;fill-opacity:1;stroke:#000000;stroke-width:0.18419486;stroke-miterlimit:4;stroke-dasharray:none;stroke-opacity:1" />
      <path
         inkscape:export-ydpi="94"
         inkscape:export-xdpi="94"
         inkscape:export-filename="/home/alumno/Escritorio/video_tutorial/vaca_04B.png"
         clip-path="none"
         mask="none"
         sodipodi:nodetypes="sssscsssscsssscccsscscccsscccc"
         inkscape:connector-curvature="0"
         id="path5152-7-9-1-5-0-6-7-3"
         d="m -245.07188,166.41704 c -5.76461,-0.0718 -5.65815,4.81906 -5.77656,5.94732 -0.11842,1.12825 -0.78163,3.65868 -0.54559,3.88767 0.23605,0.22901 0.3163,0.0524 0.52824,-0.13478 0.19459,-0.17188 0.45055,-2.78408 0.41238,-3.20354 0.0435,0.35204 0.34547,1.70803 2.44597,2.04249 1.43819,0.229 2.26447,-1.41808 2.59478,-1.6702 0.33031,-0.25212 0.73275,-0.12879 0.9622,0.15915 0.22945,0.28795 0.16576,1.54116 1.98328,1.80074 1.45942,0.20841 2.27453,-1.52635 2.27453,-1.52635 0,0 0.62565,2.20176 0.87891,2.50516 0.35943,0.43063 0.72708,0.10964 0.6182,-0.36626 -0.14421,-0.63036 -1.32032,-1.62779 -1.07262,-3.50786 0.2477,-1.88007 -0.2182,-5.87015 -5.30372,-5.93354 z m -3.11462,4.36439 c 0.91928,-0.0219 1.70698,0.70805 1.79434,1.68232 l 0.004,0.0401 c 0.0704,1.02332 -0.66056,1.91349 -1.6326,1.98795 -0.97204,0.0744 -1.81747,-0.69434 -1.88784,-1.71763 -0.0704,-1.0233 0.66058,-1.91347 1.63261,-1.98797 0.0299,-0.002 0.0599,-0.004 0.0895,-0.004 z m 5.6528,-0.13526 c 0.97916,-0.023 1.819,0.7366 1.91215,1.75054 l 0.003,0.0416 c 0.0751,1.06495 -0.70271,1.99167 -1.73803,2.06908 -1.03534,0.0775 -1.93561,-0.7228 -2.01066,-1.78775 -0.0751,-1.06495 0.70269,-1.99166 1.73803,-2.06907 0.0319,-0.002 0.0635,-0.004 0.0951,-0.004 z"
         style="display:inline;fill:#9d8167;fill-opacity:1;stroke:#000000;stroke-width:0.10834992;stroke-miterlimit:4;stroke-dasharray:none" />
      <path
         inkscape:export-ydpi="94"
         inkscape:export-xdpi="94"
         inkscape:export-filename="/home/alumno/Escritorio/video_tutorial/vaca_04B.png"
         clip-path="none"
         mask="none"
         sodipodi:nodetypes="cscc"
         inkscape:connector-curvature="0"
         id="path5962-64-1-5-8-6-8-6-2"
         d="m -249.62123,168.22764 c -0.28758,-0.29819 -1.21079,-1.77302 -0.90527,-2.11422 0.64584,-0.72136 1.82105,1.29972 1.82105,1.29972 0,0 -0.66371,0.40886 -0.91578,0.8145 z"
         style="display:inline;fill:#000000;fill-opacity:1;stroke:none;stroke-width:0.06593057" />
      <path
         inkscape:export-ydpi="94"
         inkscape:export-xdpi="94"
         inkscape:export-filename="/home/alumno/Escritorio/video_tutorial/vaca_04B.png"
         clip-path="none"
         mask="none"
         sodipodi:nodetypes="cscc"
         inkscape:connector-curvature="0"
         id="path5964-7-1-9-6-3-9-2-7"
         d="m -241.3247,167.6515 c 0,0 1.46953,-1.68204 1.76515,-1.29775 0.49049,0.63765 -0.55772,2.02531 -1.04556,2.15614 -0.29499,-0.61017 -0.71959,-0.85839 -0.71959,-0.85839 z"
         style="display:inline;fill:#000000;fill-opacity:1;stroke:none;stroke-width:0.06593057" />
      <path
         inkscape:export-ydpi="94"
         inkscape:export-xdpi="94"
         inkscape:export-filename="/home/alumno/Escritorio/video_tutorial/vaca_04B.png"
         clip-path="none"
         mask="none"
         sodipodi:nodetypes="cccsssc"
         inkscape:connector-curvature="0"
         id="path6961-0-7-6-4-6-2-4-3"
         d="m -244.43237,171.97847 c 0,0 0.70594,-1.46017 1.93596,-1.47229 1.22064,0.019 1.61954,0.68989 1.89563,1.74537 0,0 -0.17834,-1.1629 -0.49394,-1.54824 -0.32752,-0.3999 -0.91002,-0.69486 -1.47681,-0.67766 -0.5311,0.0161 -1.17318,0.37038 -1.48231,0.85915 -0.29937,0.47337 -0.37853,1.09367 -0.37853,1.09367 z"
         style="display:inline;fill:#aaeeff;stroke:none;stroke-width:0.06593057" />
      <path
         inkscape:export-ydpi="94"
         inkscape:export-xdpi="94"
         inkscape:export-filename="/home/alumno/Escritorio/video_tutorial/vaca_04B.png"
         clip-path="none"
         mask="none"
         sodipodi:nodetypes="cccsssc"
         inkscape:connector-curvature="0"
         id="path6961-8-5-1-73-7-1-6-2-3"
         d="m -250.08569,172.12676 c 0,0 0.70594,-1.46019 1.93596,-1.47232 1.22064,0.019 1.61954,0.68992 1.89562,1.7454 0,0 -0.17834,-1.16291 -0.49393,-1.54824 -0.32752,-0.39992 -0.91002,-0.69486 -1.47681,-0.67769 -0.5311,0.0161 -1.17319,0.37041 -1.48231,0.85916 -0.29938,0.47336 -0.37853,1.09369 -0.37853,1.09369 z"
         style="display:inline;fill:#aaeeff;stroke:none;stroke-width:0.06593057" />
      <path
         inkscape:export-ydpi="94"
         inkscape:export-xdpi="94"
         inkscape:export-filename="/home/alumno/Escritorio/video_tutorial/vaca_04B.png"
         clip-path="none"
         mask="none"
         sodipodi:nodetypes="ccsccsc"
         inkscape:connector-curvature="0"
         id="path6981-2-8-65-2-5-6-5-2"
         d="m -246.30447,171.71242 0.13295,0.4231 c 0,0 0.36515,-0.037 0.88383,-0.0352 0.44184,0.002 0.72994,0.0219 0.72994,0.0219 l 0.15534,-0.4605 c 0,0 -0.3268,0.0564 -0.92232,0.0543 -0.59554,-0.002 -0.97974,-0.003 -0.97974,-0.003 z"
         style="display:inline;fill:#aaeeff;fill-opacity:1;stroke:none;stroke-width:0.06593057" />
      <g
         clip-path="none"
         mask="none"
         inkscape:export-ydpi="94"
         inkscape:export-xdpi="94"
         inkscape:export-filename="/home/alumno/Escritorio/video_tutorial/vaca_04B.png"
         transform="matrix(0.03803506,1.3633708e-4,-1.3633708e-4,0.03803506,-396.19339,152.55099)"
         id="g3747-6-9-6-7-5-52-3"
         style="display:inline">
        <path
           style="display:inline;fill:#000000;fill-opacity:1;stroke:none"
           d="m 3940.927,505.10211 c 1.516,21.18198 -13.383,39.66183 -33.2779,41.27592 -19.8948,1.61402 -37.2518,-14.24882 -38.7678,-35.43079 -1.516,-21.18198 13.383,-39.66183 33.2779,-41.27593 19.5882,-1.58914 36.7791,13.77787 38.6993,34.59367"
           id="path5156-8-51-3-4-2-65-0-9-8"
           inkscape:connector-curvature="0" />
        <path
           style="display:inline;fill:#000000;fill-opacity:1;stroke:none"
           d="m 4085.6179,501.7779 c 1.516,21.18199 -13.383,39.66183 -33.2779,41.27592 -19.8948,1.61402 -37.2518,-14.24882 -38.7678,-35.43078 -1.516,-21.18198 13.383,-39.66183 33.2779,-41.27593 19.5882,-1.58914 36.7791,13.77787 38.6993,34.59366"
           id="path5156-8-5-6-3-8-9-6-4-77-6"
           inkscape:connector-curvature="0" />
      </g>
      <g
         clip-path="none"
         mask="none"
         inkscape:export-ydpi="94"
         inkscape:export-xdpi="94"
         inkscape:export-filename="/home/alumno/Escritorio/video_tutorial/vaca_04B.png"
         transform="matrix(0.03803506,1.3633708e-4,-1.3633708e-4,0.03803506,-396.98094,153.01312)"
         id="g3741-7-12-9-9-8-6-1"
         style="display:inline">
        <path
           style="display:inline;opacity:0.43000004;fill:#e6e6e6;stroke:none"
           d="m 4023.8296,473.02454 c 0,0 31.1922,2.90819 41.5179,15.18716 10.3258,12.27898 12.391,21.97292 24.0936,28.43554 11.7025,6.46262 17.2097,3.87758 17.2097,3.87758 0,0 18.1056,-45.96608 -22.7168,-66.88816 -38.5778,-19.77166 -60.1044,19.38788 -60.1044,19.38788 z"
           id="path6987-0-1-4-7-9-0-3-7-8-6"
           inkscape:connector-curvature="0"
           sodipodi:nodetypes="csscsc" />
        <path
           sodipodi:type="arc"
           style="display:inline;fill:#ffffff;fill-opacity:1;stroke:none"
           id="path6989-1-1-3-8-7-1-1-0"
           sodipodi:cx="-427.29453"
           sodipodi:cy="781.47375"
           sodipodi:rx="7.5761442"
           sodipodi:ry="8.586297"
           d="m -419.74028,780.82137 a 7.5761442,8.586297 0 0 1 -6.93736,9.21017 7.5761442,8.586297 0 0 1 -8.16439,-7.81192 7.5761442,8.586297 0 0 1 6.84817,-9.2955 7.5761442,8.586297 0 0 1 8.2392,7.71037"
           transform="translate(4501.6594,-306.73121)"
           sodipodi:start="6.2071318"
           sodipodi:end="6.1852847"
           sodipodi:open="true" />
        <path
           style="display:inline;opacity:0.43000004;fill:#e6e6e6;stroke:none"
           d="m 3873.8164,477.45607 c 0,0 31.1922,2.90819 41.5179,15.18716 10.3258,12.27898 12.391,21.97292 24.0936,28.43554 11.7025,6.46262 17.2097,3.87758 17.2097,3.87758 0,0 18.1056,-45.96608 -22.7168,-66.88816 -38.5778,-19.77166 -60.1044,19.38788 -60.1044,19.38788 z"
           id="path6987-0-2-1-9-1-4-7-20-9"
           inkscape:connector-curvature="0"
           sodipodi:nodetypes="csscsc" />
        <path
           sodipodi:type="arc"
           style="display:inline;fill:#ffffff;fill-opacity:1;stroke:none"
           id="path6989-6-9-7-0-3-5-2-3-1"
           sodipodi:cx="-427.29453"
           sodipodi:cy="781.47375"
           sodipodi:rx="7.5761442"
           sodipodi:ry="8.586297"
           d="m -419.74028,780.82137 a 7.5761442,8.586297 0 0 1 -6.93736,9.21017 7.5761442,8.586297 0 0 1 -8.16439,-7.81192 7.5761442,8.586297 0 0 1 6.84817,-9.2955 7.5761442,8.586297 0 0 1 8.2392,7.71037"
           transform="translate(4351.3765,-304.15304)"
           sodipodi:start="6.2071318"
           sodipodi:end="6.1852847"
           sodipodi:open="true" />
      </g>
      <path
         inkscape:export-filename="/home/alumno/Escritorio/video_tutorial/vaca_02.png"
         inkscape:export-ydpi="94.911591"
         inkscape:export-xdpi="94.911591"
         transform="matrix(-0.06249972,-0.02852177,-0.02851725,0.06250964,-169.60506,150.50142)"
         clip-path="url(#clipPath9406-5-9-1-5-3-8-6-1-2-4-4-7)"
         mask="none"
         sodipodi:nodetypes="csscscscccc"
         inkscape:connector-curvature="0"
         id="path3124-1-3-6-7-7-9-1-0-3-7-2-7-9"
         d="m 705.80471,692.77113 c -0.3769,-12.8164 -1.3208,-20.6945 -5.724,-22.4557 -4.403,-1.7612 -10.127,0.4403 -9.2464,13.6495 0.8806,13.2093 -0.4403,26.8588 -0.4403,26.8588 0,0 -1.3209,-13.6495 -11.0077,-12.7689 -8.77,0.7973 -5.7241,14.5302 -5.7241,14.5302 0,0 -1.3208,-12.3287 -9.2465,-11.8883 -6.6962,0.372 -6.6045,14.5301 -6.6045,14.5301 2.65192,27.37148 2.78508,48.94843 8.46368,54.35464 13.13957,1.59291 38.75121,1.62887 45.64156,-3.75441 z"
         style="display:inline;fill:#000000;fill-opacity:1;stroke:#000000;stroke-width:0.87648851px;stroke-linecap:butt;stroke-linejoin:miter;stroke-opacity:1" />
      <g
         transform="matrix(0.11425534,0.04796254,-0.04796254,0.11425534,-187.51132,110.80762)"
         id="g13378-9-4-1">
        <path
           style="display:inline;fill:#000000;fill-opacity:1;stroke:#000000;stroke-width:0.2881951px;stroke-linecap:butt;stroke-linejoin:miter;stroke-opacity:1"
           d="m -238.60557,697.21187 6.10743,5.46876 c 0,0 19.45476,-3.67235 23.3039,-6.35926 3.84912,-2.68695 11.2011,-9.03004 11.2011,-9.03004 l -0.18082,-5.4004 c 0,0 -12.86253,10.4981 -20.43665,12.54858 -7.57413,2.05048 -19.99496,2.77236 -19.99496,2.77236 z"
           id="path7018-2-8-1-3-4-2-6-5"
           inkscape:connector-curvature="0" />
        <path
           style="fill:#c83737;stroke:#000000;stroke-width:0.42778683px;stroke-linecap:butt;stroke-linejoin:miter;stroke-opacity:1"
           d="m -240.41583,690.96378 9.2859,11.6438 c 0,0 18.01184,-3.70022 23.1913,-5.55088 5.17938,-1.85063 9.99282,-8.1316 11.41702,-12.99371 1.42418,-4.86211 -1.97093,-12.95229 -1.97093,-12.95229 0,0 -21.2117,14.43512 -26.74027,18.03294 -5.52853,3.5978 -15.18302,1.82014 -15.18302,1.82014 z"
           id="path13288-4-2-3-2-3-0"
           inkscape:connector-curvature="0"
           sodipodi:nodetypes="ccszcsc" />
        <path
           style="fill:#ffffff;stroke:none;stroke-width:0.28222224"
           d="m -231.42499,689.83022 3.572,3.08311 c 0,0 18.18316,-6.72641 19.35283,-8.06212 1.16967,-1.3357 -0.35513,-6.98584 -0.35513,-6.98584 l -15.18885,5.42708 z"
           id="path13290-5-1-1-8-8-9"
           inkscape:connector-curvature="0" />
        <path
           style="display:inline;fill:#deccd8;fill-opacity:1;stroke:none;stroke-width:0.28222224"
           d="m -243.00049,690.68067 c 7.05985,5.7644 13.9791,-1.05847 25.24227,-5.78868 11.25382,-4.72625 18.41577,-3.79439 19.68055,-14.06652 -0.68636,-7.86298 -3.2195,-9.24104 -6.17886,-6.03392 -0.82759,-4.24309 -3.20978,-3.33106 -7.21746,-3.30006 -4.00767,0.031 -5.45551,6.44507 -13.063,9.23597 -3.80373,1.39544 -10.33343,-1.00256 -14.69833,-0.93654 -6.29837,1.1639 -6.04006,5.26196 -6.44285,10.52085 -5.33851,1.334 0.25787,8.39313 2.67768,10.3689 z"
           id="path5150-81-5-0-5-4-9-0-4"
           inkscape:connector-curvature="0"
           sodipodi:nodetypes="sscczsccs" />
        <path
           style="fill:#ffffff;stroke:none;stroke-width:0.28222224"
           d="m -227.43837,698.90984 0.40589,-4.70109 c 0,0 17.71593,-7.87515 19.48583,-7.73507 1.76993,0.14004 4.62184,5.2504 4.62184,5.2504 l -14.66481,6.71556 z"
           id="path13290-5-2-1-6-7-4-9"
           inkscape:connector-curvature="0" />
        <path
           style="display:inline;fill:#deccd8;fill-opacity:1;stroke:none;stroke-width:0.28222224"
           d="m -233.91216,696.20857 c 14.51314,5.81545 25.88534,0.0351 37.60998,-14.49742 1.92823,-2.39 2.12717,18.32356 -15.62197,25.13221 -17.74911,6.80868 -36.50107,-16.45027 -21.98801,-10.63479 z"
           id="path6030-7-6-7-0-9-3-9-6"
           inkscape:connector-curvature="0"
           sodipodi:nodetypes="zszz" />
        <path
           sodipodi:type="arc"
           style="display:inline;fill:#000000;fill-opacity:1;stroke:none;stroke-width:0.28222221"
           id="path7014-8-3-4-0-4-6-7-8"
           sodipodi:cx="-420.68927"
           sodipodi:cy="562.27679"
           sodipodi:rx="5.455122"
           sodipodi:ry="4.1170731"
           d="m -415.24992,561.96398 a 5.455122,4.1170731 0 0 1 -4.99517,4.41622 5.455122,4.1170731 0 0 1 -5.87868,-3.74577 5.455122,4.1170731 0 0 1 4.93095,-4.45713 5.455122,4.1170731 0 0 1 5.93255,3.69707"
           transform="rotate(-19.662187)"
           sodipodi:start="6.2071318"
           sodipodi:end="6.1852847"
           sodipodi:open="true" />
        <path
           sodipodi:type="arc"
           style="display:inline;fill:#000000;fill-opacity:1;stroke:none;stroke-width:0.28222221"
           id="path7016-3-1-5-4-2-1-9-2"
           sodipodi:cx="-453.62582"
           sodipodi:cy="560.1153"
           sodipodi:rx="5.2492676"
           sodipodi:ry="4.0141459"
           d="m -448.39173,559.8103 a 5.2492676,4.0141459 0 0 1 -4.80667,4.30581 5.2492676,4.0141459 0 0 1 -5.65685,-3.65212 5.2492676,4.0141459 0 0 1 4.74488,-4.3457 5.2492676,4.0141459 0 0 1 5.70868,3.60465"
           transform="rotate(-19.662187)"
           sodipodi:start="6.2071318"
           sodipodi:end="6.1852847"
           sodipodi:open="true" />
      </g>
    </g>
  </g>
</svg>
