<?xml version="1.0" encoding="UTF-8" standalone="no"?>
<!-- Created with Inkscape (http://www.inkscape.org/) -->

<svg
   xmlns:dc="http://purl.org/dc/elements/1.1/"
   xmlns:cc="http://creativecommons.org/ns#"
   xmlns:rdf="http://www.w3.org/1999/02/22-rdf-syntax-ns#"
   xmlns:svg="http://www.w3.org/2000/svg"
   xmlns="http://www.w3.org/2000/svg"
   xmlns:sodipodi="http://sodipodi.sourceforge.net/DTD/sodipodi-0.dtd"
   xmlns:inkscape="http://www.inkscape.org/namespaces/inkscape"
   width="100"
   height="100"
   viewBox="0 0 26.458333 26.458334"
   version="1.1"
   id="svg13625"
   inkscape:version="0.92.1 r15371"
   sodipodi:docname="vaca1.svg">
  <defs
     id="defs13619">
    <clipPath
       clipPathUnits="userSpaceOnUse"
       id="clipPath9406-5-9-1-5-3-8-6-4">
      <rect
         style="opacity:0.73280005;fill:#ffdd55;fill-opacity:1;stroke:none;stroke-width:0.5;stroke-miterlimit:4;stroke-dasharray:none;stroke-opacity:1"
         id="rect9408-2-0-59-4-6-7-1-03"
         width="477.41364"
         height="539.93207"
         x="573.77612"
         y="244.1604" />
    </clipPath>
  </defs>
  <sodipodi:namedview
     id="base"
     pagecolor="#ffffff"
     bordercolor="#666666"
     borderopacity="1.0"
     inkscape:pageopacity="0.0"
     inkscape:pageshadow="2"
     inkscape:zoom="2.7599398"
     inkscape:cx="108.57143"
     inkscape:cy="45.714286"
     inkscape:document-units="mm"
     inkscape:current-layer="layer1"
     showgrid="false"
     units="px"
     inkscape:window-width="1918"
     inkscape:window-height="1023"
     inkscape:window-x="0"
     inkscape:window-y="26"
     inkscape:window-maximized="1" />
  <metadata
     id="metadata13622">
    <rdf:RDF>
      <cc:Work
         rdf:about="">
        <dc:format>image/svg+xml</dc:format>
        <dc:type
           rdf:resource="http://purl.org/dc/dcmitype/StillImage" />
        <dc:title></dc:title>
      </cc:Work>
    </rdf:RDF>
  </metadata>
  <g
     inkscape:label="Capa 1"
     inkscape:groupmode="layer"
     id="layer1"
     transform="translate(0,-270.54165)">
    <g
       transform="matrix(0.67130458,0,0,0.67130458,-168.66283,302.24886)"
       id="g12851"
       inkscape:export-xdpi="94"
       inkscape:export-ydpi="94">
      <path
         inkscape:export-ydpi="94"
         inkscape:export-xdpi="94"
         inkscape:export-filename="/home/alumno/Escritorio/video_tutorial/vaca_01.png"
         sodipodi:nodetypes="cccccc"
         clip-path="none"
         mask="none"
         inkscape:connector-curvature="0"
         id="path6937-9-4-0-1"
         d="m 263.15315,-31.675421 c -0.0548,-0.279346 -0.88189,-3.185559 -1.83101,-3.188956 -0.94913,-0.0039 -2.28888,-0.06408 -2.01513,1.444383 0.27375,1.508435 0.94033,2.459955 2.00032,2.687114 1.05999,0.227089 2.12078,0.230911 2.12078,0.230911 z"
         style="display:inline;fill:#f4d7d7;fill-opacity:1;stroke:none;stroke-width:0.09580566" />
      <path
         inkscape:export-ydpi="94"
         inkscape:export-xdpi="94"
         inkscape:export-filename="/home/alumno/Escritorio/video_tutorial/vaca_01.png"
         clip-path="none"
         mask="none"
         sodipodi:nodetypes="ccsssscscsccssscc"
         inkscape:connector-curvature="0"
         id="path6935-0-4-61-9"
         d="m 263.83241,-31.066481 c 3.53365,-2.517191 -0.17198,-1.947059 -0.17198,-1.947059 0,0 2.81257,-5.852268 7.82975,-3.712682 5.01719,2.139616 6.80178,2.704298 7.35169,5.051225 0.54989,2.34685 0.12454,3.370026 0.0669,4.718018 -0.0172,0.402525 -0.44064,1.862108 -0.0667,2.813512 0.0809,0.205744 0.19904,0.387718 0.36666,0.530105 3.86006,0.895658 3.2171,3.286581 2.58563,5.285571 -0.3092,0.978795 -1.88026,2.153822 -0.52267,3.427864 -2.17543,0.01745 -4.20681,0.0876 -6.44138,0.07512 -4.97283,-0.02771 -9.92008,-0.120407 -14.07591,-0.237712 0,0 -1.55175,-0.237156 0.44432,-3.179954 -0.23412,-1.376826 -0.6734,-2.276653 -0.76201,-3.188669 -0.16694,-1.71851 1.43972,-2.671589 2.63712,-3.461508 0.5786,-0.381704 0.54995,-1.568951 0.71812,-2.442253 0.18816,-0.977126 -0.66346,-3.378232 0.0405,-3.731627 z"
         style="display:inline;fill:#ffffff;stroke:#000000;stroke-width:0.13895869;stroke-miterlimit:4;stroke-dasharray:none" />
      <path
         inkscape:export-ydpi="94"
         inkscape:export-xdpi="94"
         inkscape:export-filename="/home/alumno/Escritorio/video_tutorial/vaca_01.png"
         clip-path="none"
         mask="none"
         sodipodi:nodetypes="cssccccssscscc"
         inkscape:connector-curvature="0"
         id="path7012-4-2-5-6"
         d="m 269.97975,-28.917902 c 0,0 -1.50796,2.165949 -1.98354,2.677425 -0.47559,0.51153 -1.78333,1.888626 -1.863,2.085701 -0.0797,0.197128 5.89943,6.258815 5.78042,6.41634 0.26687,2.646059 0.143,2.68076 0.143,2.68076 l -10.92923,0.103857 c -0.0379,0.208407 -1.16262,-6.383276 -0.43362,-7.557547 0.3394,-0.635944 1.83693,-2.038339 2.56165,-2.354856 0.66532,-0.290578 0.46785,-1.717977 0.62775,-2.497759 0.15361,-0.749157 -0.16336,-1.350138 -0.12297,-1.916264 0.23093,-3.237166 -0.0808,-5.492558 1.62136,-5.457533 1.65738,0.203328 4.2716,-2.195524 4.77548,0.411913 0.50388,2.607397 -0.1773,5.407994 -0.1773,5.407994 z"
         style="display:inline;fill:#d5f6ff;stroke:none;stroke-width:0.09580566" />
      <path
         inkscape:export-ydpi="94"
         inkscape:export-xdpi="94"
         inkscape:export-filename="/home/alumno/Escritorio/video_tutorial/vaca_01.png"
         clip-path="none"
         mask="none"
         sodipodi:nodetypes="cssssc"
         inkscape:connector-curvature="0"
         id="path6983-98-7-9-9"
         d="m 271.68949,-30.025719 c 0,0 0.64831,2.590915 1.09355,2.983358 0.44525,0.392411 2.11939,2.161132 3.87928,1.947676 1.73333,-0.210252 2.05271,-1.242438 2.05732,-2.526539 0.005,-1.284102 0.6267,-4.610287 -0.60098,-4.782171 -1.22769,-0.171931 -6.42917,2.377676 -6.42917,2.377676 z"
         style="display:inline;fill:#000000;fill-opacity:1;stroke:#000000;stroke-width:0.05527022px;stroke-linecap:butt;stroke-linejoin:miter;stroke-opacity:1" />
      <path
         inkscape:export-ydpi="94"
         inkscape:export-xdpi="94"
         inkscape:export-filename="/home/alumno/Escritorio/video_tutorial/vaca_01.png"
         sodipodi:nodetypes="ccccccc"
         clip-path="none"
         mask="none"
         inkscape:connector-curvature="0"
         id="path7018-2-8-4-3"
         d="m 266.67346,-20.678686 0.74515,1.384469 c 0,0 3.74833,0.60562 4.61771,0.371884 0.86936,-0.233798 2.60882,-0.898723 2.60882,-0.898723 l 0.31937,-0.985804 c 0,0 -3.00419,1.05516 -4.50394,0.931347 -1.49976,-0.123781 -3.78711,-0.803173 -3.78711,-0.803173 z"
         style="display:inline;fill:#000000;fill-opacity:1;stroke:#000000;stroke-width:0.05527022px;stroke-linecap:butt;stroke-linejoin:miter;stroke-opacity:1" />
      <path
         inkscape:export-ydpi="94"
         inkscape:export-xdpi="94"
         inkscape:export-filename="/home/alumno/Escritorio/video_tutorial/vaca_01.png"
         sodipodi:nodetypes="ccccccc"
         clip-path="none"
         mask="none"
         inkscape:connector-curvature="0"
         id="path13288-9-3"
         d="m 266.73843,-20.862405 0.93173,1.644183 c 0,0 1.3455,0.649423 2.4003,0.653244 1.05481,0.0039 4.04638,-0.805929 4.04638,-0.805929 l 1.00461,-2.340474 c 0,0 -4.27847,0.160474 -5.51013,0.449061 -1.23166,0.288609 -2.87289,0.399915 -2.87289,0.399915 z"
         style="display:inline;fill:#c83737;stroke:#000000;stroke-width:0.0820412px;stroke-linecap:butt;stroke-linejoin:miter;stroke-opacity:1" />
      <path
         inkscape:export-ydpi="94"
         inkscape:export-xdpi="94"
         inkscape:export-filename="/home/alumno/Escritorio/video_tutorial/vaca_01.png"
         sodipodi:nodetypes="cccccc"
         clip-path="none"
         mask="none"
         inkscape:connector-curvature="0"
         id="path13290-0-8"
         d="m 268.44971,-21.54209 0.44332,0.78893 c 0,0 3.71802,-0.02825 4.01605,-0.192774 0.29803,-0.164705 0.39126,-1.283176 0.39126,-1.283176 l -3.09327,-0.01119 z"
         style="display:inline;fill:#ffffff;stroke:none;stroke-width:0.09580566" />
      <path
         inkscape:export-ydpi="94"
         inkscape:export-xdpi="94"
         inkscape:export-filename="/home/alumno/Escritorio/video_tutorial/vaca_01.png"
         clip-path="none"
         mask="none"
         sodipodi:nodetypes="cscczsccsc"
         inkscape:connector-curvature="0"
         id="path5150-81-5-9-0"
         d="m 266.16707,-21.038473 c 0.89766,1.499881 2.13994,3.40712 4.48261,3.434665 2.79316,0.03281 4.53909,-1.907594 4.75374,-3.753799 0.38867,-1.462957 0.0656,-2.225455 -0.42152,-2.929859 0.12728,-0.819239 -0.36184,-0.810029 -1.0867,-1.065605 -0.72486,-0.255615 -1.40405,0.806887 -2.95809,0.814421 -0.77702,0.0039 -1.79845,-0.854295 -2.59003,-1.126901 -1.21187,-0.200563 -1.9782,1.136266 -2.39361,2.058565 -0.59367,1.426836 -0.0941,2.05442 0.2136,2.56849 z"
         style="display:inline;fill:#deccd8;fill-opacity:1;stroke:none;stroke-width:0.09580566" />
      <path
         inkscape:export-ydpi="94"
         inkscape:export-xdpi="94"
         inkscape:export-filename="/home/alumno/Escritorio/video_tutorial/vaca_01.png"
         sodipodi:nodetypes="ccsccc"
         clip-path="none"
         mask="none"
         inkscape:connector-curvature="0"
         id="path6939-3-5-1-5"
         d="m 279.11741,-30.66906 c 0,0 1.46261,-3.065498 2.63507,-3.061298 1.17245,0.0046 2.45696,-0.102829 2.17321,1.180246 -0.28377,1.283113 -0.61995,1.616923 -2.24125,2.225222 -1.6213,0.608377 -2.96185,0.771059 -2.96185,0.771059 z"
         style="display:inline;fill:#f4d7d7;fill-opacity:1;stroke:none;stroke-width:0.09580566" />
      <path
         inkscape:export-ydpi="94"
         inkscape:export-xdpi="94"
         inkscape:export-filename="/home/alumno/Escritorio/video_tutorial/vaca_01.png"
         clip-path="none"
         mask="none"
         sodipodi:open="true"
         sodipodi:end="6.1852847"
         sodipodi:start="6.2071318"
         transform="rotate(0.20537657)"
         d="m 278.38233,-31.69628 a 3.1823874,3.2940497 0 0 1 -2.91407,3.533395 3.1823874,3.2940497 0 0 1 -3.42948,-2.996967 3.1823874,3.2940497 0 0 1 2.8766,-3.566131 3.1823874,3.2940497 0 0 1 3.46091,2.958011"
         sodipodi:ry="3.2940497"
         sodipodi:rx="3.1823874"
         sodipodi:cy="-31.445997"
         sodipodi:cx="275.20914"
         id="path6985-4-6-77-66"
         style="display:inline;fill:#ffffff;fill-opacity:1;stroke:none;stroke-width:0.05527022"
         sodipodi:type="arc" />
      <path
         inkscape:export-ydpi="94"
         inkscape:export-xdpi="94"
         inkscape:export-filename="/home/alumno/Escritorio/video_tutorial/vaca_01.png"
         clip-path="none"
         mask="none"
         sodipodi:open="true"
         sodipodi:end="6.1852847"
         sodipodi:start="6.2071318"
         d="m 270.24451,-31.912308 a 3.1823874,3.2940497 0 0 1 -2.91406,3.533394 3.1823874,3.2940497 0 0 1 -3.42949,-2.996966 3.1823874,3.2940497 0 0 1 2.8766,-3.566131 3.1823874,3.2940497 0 0 1 3.46091,2.958011"
         sodipodi:ry="3.2940497"
         sodipodi:rx="3.1823874"
         sodipodi:cy="-31.662025"
         sodipodi:cx="267.07132"
         id="path6985-6-2-3-1-4"
         style="display:inline;fill:#ffffff;fill-opacity:1;stroke:none;stroke-width:0.05527022"
         sodipodi:type="arc"
         transform="rotate(0.20537657)" />
      <path
         inkscape:export-ydpi="94"
         inkscape:export-xdpi="94"
         inkscape:export-filename="/home/alumno/Escritorio/video_tutorial/vaca_01.png"
         clip-path="none"
         mask="none"
         sodipodi:nodetypes="csccsssc"
         inkscape:connector-curvature="0"
         id="path5154-0-4-7-6"
         d="m 263.28426,-31.224122 c -0.56148,-2.287384 -1.75462,-3.730871 -2.94837,-2.611343 -1.14545,1.074197 1.52652,2.694517 2.72411,3.106113 l 0.0898,0.439781 c -1.50716,0.201467 -5.74268,-1.751891 -5.18826,-3.782193 0.34652,-1.268932 1.07304,-2.023632 2.01599,-2.023957 0.56577,-1.93e-4 1.20905,0.271394 1.89683,0.865204 1.63639,1.412854 1.82792,2.44927 1.58894,3.699018"
         style="display:inline;fill:#ffffff;fill-opacity:1;stroke:#000000;stroke-width:0.13895869;stroke-miterlimit:4;stroke-dasharray:none" />
      <path
         inkscape:export-ydpi="94"
         inkscape:export-xdpi="94"
         inkscape:export-filename="/home/alumno/Escritorio/video_tutorial/vaca_01.png"
         clip-path="none"
         mask="none"
         sodipodi:nodetypes="csccsssc"
         inkscape:connector-curvature="0"
         id="path5154-4-0-1-7-2"
         d="m 278.93482,-30.473714 c 0.9554,-2.152833 2.38402,-3.363712 3.36205,-2.05154 0.93844,1.259051 -1.97705,2.383713 -3.22839,2.578054 l -0.16582,0.417077 c 1.44815,0.463682 5.9614,-0.713553 5.77306,-2.809737 -0.11773,-1.310118 -0.70004,-2.180895 -1.62821,-2.347236 -0.55689,-0.09979 -1.23794,0.05427 -2.01951,0.51776 -1.85956,1.102714 -2.23055,2.089221 -2.21532,3.361518"
         style="display:inline;fill:#ffffff;fill-opacity:1;stroke:#000000;stroke-width:0.13895869;stroke-miterlimit:4;stroke-dasharray:none" />
      <path
         inkscape:export-ydpi="94"
         inkscape:export-xdpi="94"
         inkscape:export-filename="/home/alumno/Escritorio/video_tutorial/vaca_01.png"
         clip-path="none"
         mask="none"
         sodipodi:nodetypes="sssscsssscsssscccsscscccsscccc"
         inkscape:connector-curvature="0"
         id="path5152-7-9-1-0"
         d="m 271.42128,-39.51456 c -8.37674,-0.104404 -8.22203,7.002715 -8.3941,8.642212 -0.17209,1.639504 -1.13581,5.316552 -0.79281,5.649296 0.343,0.332783 0.45962,0.0762 0.76759,-0.195847 0.28277,-0.249778 0.65472,-4.045636 0.59924,-4.655163 0.0631,0.511569 0.50202,2.481996 3.55431,2.967996 2.08988,0.332783 3.29056,-2.060642 3.77055,-2.427006 0.48,-0.366365 1.0648,-0.187162 1.39821,0.231258 0.33342,0.418428 0.24086,2.239505 2.88197,2.616708 2.12072,0.302853 3.30518,-2.217974 3.30518,-2.217974 0,0 0.90916,3.199447 1.27717,3.640324 0.5223,0.625754 1.05654,0.159316 0.89834,-0.532227 -0.20957,-0.916008 -1.91861,-2.365393 -1.55868,-5.097383 0.35995,-2.731982 -0.31707,-8.53008 -7.70697,-8.622194 z m -4.52596,6.342029 c 1.33584,-0.03173 2.48046,1.028881 2.60741,2.444622 l 0.005,0.05829 c 0.10228,1.487012 -0.95989,2.780548 -2.37239,2.888735 -1.41249,0.108226 -2.641,-1.008964 -2.74327,-2.495937 -0.10227,-1.486982 0.9599,-2.780517 2.37239,-2.888774 0.0435,-0.0039 0.087,-0.0062 0.13009,-0.0069 z m 8.21426,-0.196558 c 1.42283,-0.03335 2.64323,1.070384 2.77858,2.543763 l 0.005,0.06045 c 0.10906,1.547506 -1.02112,2.894154 -2.52559,3.006641 -1.50448,0.112487 -2.81269,-1.050334 -2.92176,-2.59784 -0.10906,-1.547506 1.02112,-2.894124 2.52559,-3.006618 0.0463,-0.0039 0.0923,-0.0054 0.13821,-0.0062 z"
         style="display:inline;fill:#9d8167;fill-opacity:1;stroke:#000000;stroke-width:0.13895869;stroke-miterlimit:4;stroke-dasharray:none" />
      <path
         inkscape:export-ydpi="94"
         inkscape:export-xdpi="94"
         inkscape:export-filename="/home/alumno/Escritorio/video_tutorial/vaca_01.png"
         clip-path="none"
         mask="none"
         sodipodi:nodetypes="cscc"
         inkscape:connector-curvature="0"
         id="path5962-64-1-5-0"
         d="m 264.81047,-36.883516 c -0.41789,-0.433312 -1.75942,-2.576418 -1.31548,-3.072238 0.93849,-1.048227 2.64622,1.888657 2.64622,1.888657 0,0 -0.96446,0.594126 -1.33074,1.183581 z"
         style="display:inline;fill:#000000;fill-opacity:1;stroke:none;stroke-width:0.09580566" />
      <path
         inkscape:export-ydpi="94"
         inkscape:export-xdpi="94"
         inkscape:export-filename="/home/alumno/Escritorio/video_tutorial/vaca_01.png"
         clip-path="none"
         mask="none"
         sodipodi:nodetypes="cscc"
         inkscape:connector-curvature="0"
         id="path5964-7-1-9-4"
         d="m 276.8664,-37.720719 c 0,0 2.13542,-2.444237 2.565,-1.885801 0.71273,0.926585 -0.81045,2.943037 -1.51933,3.133148 -0.42866,-0.886657 -1.04567,-1.247347 -1.04567,-1.247347 z"
         style="display:inline;fill:#000000;fill-opacity:1;stroke:none;stroke-width:0.09580566" />
      <path
         inkscape:export-ydpi="94"
         inkscape:export-xdpi="94"
         inkscape:export-filename="/home/alumno/Escritorio/video_tutorial/vaca_01.png"
         clip-path="none"
         mask="none"
         sodipodi:nodetypes="cccsssc"
         inkscape:connector-curvature="0"
         id="path6961-0-7-6-6"
         d="m 272.35056,-31.433085 c 0,0 1.02582,-2.121814 2.81321,-2.139431 1.77374,0.02756 2.3534,1.002517 2.75458,2.536266 0,0 -0.25915,-1.689861 -0.71775,-2.249803 -0.47593,-0.581102 -1.32238,-1.009728 -2.14599,-0.984739 -0.77175,0.02339 -1.70479,0.538226 -2.15399,1.248467 -0.43504,0.687853 -0.55006,1.58924 -0.55006,1.58924 z"
         style="display:inline;fill:#aaeeff;stroke:none;stroke-width:0.09580566" />
      <path
         inkscape:export-ydpi="94"
         inkscape:export-xdpi="94"
         inkscape:export-filename="/home/alumno/Escritorio/video_tutorial/vaca_01.png"
         clip-path="none"
         mask="none"
         sodipodi:nodetypes="cccsssc"
         inkscape:connector-curvature="0"
         id="path6961-8-5-1-73-75"
         d="m 264.13554,-31.217607 c 0,0 1.02584,-2.121845 2.81321,-2.139454 1.77374,0.02756 2.3534,1.002541 2.75458,2.536289 0,0 -0.25914,-1.689853 -0.71774,-2.249795 -0.47593,-0.58114 -1.32238,-1.009728 -2.14599,-0.984777 -0.77176,0.02339 -1.7048,0.538257 -2.154,1.248467 -0.43504,0.687853 -0.55006,1.58927 -0.55006,1.58927 z"
         style="display:inline;fill:#aaeeff;stroke:none;stroke-width:0.09580566" />
      <path
         inkscape:export-ydpi="94"
         inkscape:export-xdpi="94"
         inkscape:export-filename="/home/alumno/Escritorio/video_tutorial/vaca_01.png"
         clip-path="none"
         mask="none"
         sodipodi:nodetypes="ccsccsc"
         inkscape:connector-curvature="0"
         id="path6981-2-8-65-6"
         d="m 269.63015,-31.819691 0.1932,0.614822 c 0,0 0.5306,-0.05389 1.28432,-0.05118 0.64205,0.0039 1.06069,0.03173 1.06069,0.03173 l 0.22572,-0.669155 c 0,0 -0.47486,0.08205 -1.34024,0.07894 -0.86538,-0.0039 -1.42369,-0.0054 -1.42369,-0.0054 z"
         style="display:inline;fill:#aaeeff;fill-opacity:1;stroke:none;stroke-width:0.09580566" />
      <path
         inkscape:export-ydpi="94"
         inkscape:export-xdpi="94"
         inkscape:export-filename="/home/alumno/Escritorio/video_tutorial/vaca_01.png"
         clip-path="none"
         mask="none"
         sodipodi:open="true"
         sodipodi:end="6.1852847"
         sodipodi:start="6.2071318"
         transform="rotate(0.20537657)"
         d="m 275.04301,-24.379004 a 1.0461863,0.78957456 0 0 1 -0.95798,0.846945 1.0461863,0.78957456 0 0 1 -1.12741,-0.718364 1.0461863,0.78957456 0 0 1 0.94566,-0.854792 1.0461863,0.78957456 0 0 1 1.13774,0.709027"
         sodipodi:ry="0.78957456"
         sodipodi:rx="1.0461863"
         sodipodi:cy="-24.319012"
         sodipodi:cx="273.99985"
         id="path7014-8-3-6-9"
         style="display:inline;fill:#000000;fill-opacity:1;stroke:none;stroke-width:0.05527022"
         sodipodi:type="arc" />
      <path
         inkscape:export-ydpi="94"
         inkscape:export-xdpi="94"
         inkscape:export-filename="/home/alumno/Escritorio/video_tutorial/vaca_01.png"
         clip-path="none"
         mask="none"
         sodipodi:open="true"
         sodipodi:end="6.1852847"
         sodipodi:start="6.2071318"
         transform="rotate(0.20537657)"
         d="m 268.68706,-24.792018 a 1.0067075,0.76983511 0 0 1 -0.92183,0.825771 1.0067075,0.76983511 0 0 1 -1.08487,-0.700406 1.0067075,0.76983511 0 0 1 0.90997,-0.833422 1.0067075,0.76983511 0 0 1 1.09482,0.691302"
         sodipodi:ry="0.76983511"
         sodipodi:rx="1.0067075"
         sodipodi:cy="-24.733526"
         sodipodi:cx="267.68326"
         id="path7016-3-1-3-8"
         style="display:inline;fill:#000000;fill-opacity:1;stroke:none;stroke-width:0.05527022"
         sodipodi:type="arc" />
      <g
         clip-path="none"
         mask="none"
         inkscape:export-ydpi="94"
         inkscape:export-xdpi="94"
         inkscape:export-filename="/home/alumno/Escritorio/video_tutorial/vaca_01.png"
         transform="matrix(0.05526986,1.9811545e-4,-1.9811545e-4,0.05526986,51.205401,-59.755615)"
         id="g3747-6-9-7"
         style="display:inline">
        <path
           style="display:inline;fill:#000000;fill-opacity:1;stroke:none"
           d="m 3940.927,505.10211 c 1.516,21.18198 -13.383,39.66183 -33.2779,41.27592 -19.8948,1.61402 -37.2518,-14.24882 -38.7678,-35.43079 -1.516,-21.18198 13.383,-39.66183 33.2779,-41.27593 19.5882,-1.58914 36.7791,13.77787 38.6993,34.59367"
           id="path5156-8-51-3-4-28"
           inkscape:connector-curvature="0" />
        <path
           style="display:inline;fill:#000000;fill-opacity:1;stroke:none"
           d="m 4085.6179,501.7779 c 1.516,21.18199 -13.383,39.66183 -33.2779,41.27592 -19.8948,1.61402 -37.2518,-14.24882 -38.7678,-35.43078 -1.516,-21.18198 13.383,-39.66183 33.2779,-41.27593 19.5882,-1.58914 36.7791,13.77787 38.6993,34.59366"
           id="path5156-8-5-6-3-8-2"
           inkscape:connector-curvature="0" />
      </g>
      <g
         clip-path="none"
         mask="none"
         inkscape:export-ydpi="94"
         inkscape:export-xdpi="94"
         inkscape:export-filename="/home/alumno/Escritorio/video_tutorial/vaca_01.png"
         transform="matrix(0.05526986,1.9811545e-4,-1.9811545e-4,0.05526986,50.677715,-58.992176)"
         id="g3741-7-12-99"
         style="display:inline">
        <path
           style="display:inline;opacity:0.43000004;fill:#e6e6e6;stroke:none"
           d="m 4023.8296,473.02454 c 0,0 31.1922,2.90819 41.5179,15.18716 10.3258,12.27898 12.391,21.97292 24.0936,28.43554 11.7025,6.46262 17.2097,3.87758 17.2097,3.87758 0,0 18.1056,-45.96608 -22.7168,-66.88816 -38.5778,-19.77166 -60.1044,19.38788 -60.1044,19.38788 z"
           id="path6987-0-1-4-7-9-6"
           inkscape:connector-curvature="0"
           sodipodi:nodetypes="csscsc" />
        <path
           sodipodi:type="arc"
           style="display:inline;fill:#ffffff;fill-opacity:1;stroke:none"
           id="path6989-1-1-3-0"
           sodipodi:cx="-427.29453"
           sodipodi:cy="781.47375"
           sodipodi:rx="7.5761442"
           sodipodi:ry="8.586297"
           d="m -419.74028,780.82137 a 7.5761442,8.586297 0 0 1 -6.93736,9.21017 7.5761442,8.586297 0 0 1 -8.16439,-7.81192 7.5761442,8.586297 0 0 1 6.84817,-9.2955 7.5761442,8.586297 0 0 1 8.2392,7.71037"
           transform="translate(4501.6594,-306.73121)"
           sodipodi:start="6.2071318"
           sodipodi:end="6.1852847"
           sodipodi:open="true" />
        <path
           style="display:inline;opacity:0.43000004;fill:#e6e6e6;stroke:none"
           d="m 3873.8164,477.45607 c 0,0 31.1922,2.90819 41.5179,15.18716 10.3258,12.27898 12.391,21.97292 24.0936,28.43554 11.7025,6.46262 17.2097,3.87758 17.2097,3.87758 0,0 18.1056,-45.96608 -22.7168,-66.88816 -38.5778,-19.77166 -60.1044,19.38788 -60.1044,19.38788 z"
           id="path6987-0-2-1-9-2"
           inkscape:connector-curvature="0"
           sodipodi:nodetypes="csscsc" />
        <path
           sodipodi:type="arc"
           style="display:inline;fill:#ffffff;fill-opacity:1;stroke:none"
           id="path6989-6-9-7-0-7"
           sodipodi:cx="-427.29453"
           sodipodi:cy="781.47375"
           sodipodi:rx="7.5761442"
           sodipodi:ry="8.586297"
           d="m -419.74028,780.82137 a 7.5761442,8.586297 0 0 1 -6.93736,9.21017 7.5761442,8.586297 0 0 1 -8.16439,-7.81192 7.5761442,8.586297 0 0 1 6.84817,-9.2955 7.5761442,8.586297 0 0 1 8.2392,7.71037"
           transform="translate(4351.3765,-304.15304)"
           sodipodi:start="6.2071318"
           sodipodi:end="6.1852847"
           sodipodi:open="true" />
      </g>
      <path
         inkscape:export-ydpi="94"
         inkscape:export-xdpi="94"
         inkscape:export-filename="/home/alumno/Escritorio/video_tutorial/vaca_01.png"
         inkscape:connector-curvature="0"
         id="path9848-5-2"
         d="m 284.69263,-22.584373 4.27037,1.545259 -2.28118,6.079767 h -7.12869"
         style="opacity:0;fill:#ffffff;fill-opacity:1;fill-rule:evenodd;stroke:none;stroke-width:0.08788257px;stroke-linecap:butt;stroke-linejoin:miter;stroke-opacity:1" />
      <path
         inkscape:export-filename="/home/alumno/Escritorio/video_tutorial/vaca_01.png"
         inkscape:export-ydpi="94.911591"
         inkscape:export-xdpi="94.911591"
         transform="matrix(-0.0908202,-0.04144584,-0.04143927,0.09083461,381.08433,-62.642013)"
         clip-path="url(#clipPath9406-5-9-1-5-3-8-6-4)"
         mask="none"
         sodipodi:nodetypes="csscscscscc"
         inkscape:connector-curvature="0"
         id="path3124-1-3-6-7-7-9-1-0-1"
         d="m 705.80471,692.77113 c -0.3769,-12.8164 -1.3208,-20.6945 -5.724,-22.4557 -4.403,-1.7612 -10.127,0.4403 -9.2464,13.6495 0.8806,13.2093 -0.4403,26.8588 -0.4403,26.8588 0,0 -1.3209,-13.6495 -11.0077,-12.7689 -8.77,0.7973 -5.7241,14.5302 -5.7241,14.5302 0,0 -1.3208,-12.3287 -9.2465,-11.8883 -6.6962,0.372 -6.6045,14.5301 -6.6045,14.5301 3.3593,34.6726 2.6769,60.0471 14.3446,55.0322 5.8338,-2.5074 27.74706,5.90096 39.76064,-4.43197 z"
         style="display:inline;opacity:0;fill:#000000;fill-opacity:1;stroke:#000000;stroke-width:0.87648851px;stroke-linecap:butt;stroke-linejoin:miter;stroke-opacity:1" />
      <path
         sodipodi:nodetypes="ccccc"
         inkscape:connector-curvature="0"
         id="path11962"
         d="m 267.83063,-19.592446 c 2.14619,-1.8211 4.40959,-1.587364 6.29846,-0.07589 l -2.09081,-0.464624 c -0.80253,-0.224812 -1.53673,-0.232655 -2.44758,0.03103 z"
         style="fill:#800000;fill-opacity:1;fill-rule:evenodd;stroke:none;stroke-width:0.2042564px;stroke-linecap:butt;stroke-linejoin:miter;stroke-opacity:1" />
      <path
         sodipodi:nodetypes="ccccccc"
         inkscape:connector-curvature="0"
         id="path12078-0"
         d="m 266.71562,-14.98412 -5.78597,-6.297809 c -2.38965,-0.508126 -4.85952,-0.374362 -7.3134,-0.368634 -1.54895,0.540426 -0.80435,0.35981 -0.25454,1.444391 l 5.61427,1.549327 1.49229,3.671312 z"
         style="fill:#ffffff;fill-rule:evenodd;stroke:#000000;stroke-width:0.15439855;stroke-linecap:butt;stroke-linejoin:miter;stroke-miterlimit:4;stroke-dasharray:none;stroke-opacity:1" />
      <path
         sodipodi:nodetypes="cccccccccc"
         inkscape:connector-curvature="0"
         id="path12125"
         d="m 259.11884,-18.551846 c 0.63627,-0.790845 1.56499,-1.289236 3.07721,-1.204123 l -1.18183,-1.516302 c -2.2915,-0.467149 -5.28711,-0.322184 -7.80965,-0.37908 -0.40266,0.07765 -1.10941,-0.132582 -1.08327,0.715962 l 0.31241,0.451106 c 0.18258,0.305555 0.45696,0.39692 0.65404,0.496006 l 5.51823,1.146548 h 0.13379 z"
         style="fill:#000000;fill-rule:evenodd;stroke:#000000;stroke-width:0.2042564px;stroke-linecap:butt;stroke-linejoin:miter;stroke-opacity:1" />
      <path
         sodipodi:nodetypes="ccccccc"
         inkscape:connector-curvature="0"
         id="path12078-0-6"
         d="m 275.16354,-14.871842 5.78597,-6.297808 c 2.38964,-0.508126 4.85952,-0.374363 7.31339,-0.368635 1.54895,0.540426 0.80436,0.359811 0.25454,1.444391 l -5.61427,1.549328 -1.49228,3.671312 z"
         style="fill:#ffffff;fill-rule:evenodd;stroke:#000000;stroke-width:0.15439855;stroke-linecap:butt;stroke-linejoin:miter;stroke-miterlimit:4;stroke-dasharray:none;stroke-opacity:1" />
      <path
         sodipodi:nodetypes="cccccccccc"
         inkscape:connector-curvature="0"
         id="path12125-3"
         d="m 282.76031,-18.543748 c -0.63627,-0.790845 -1.56498,-1.289235 -3.0772,-1.204123 l 1.18183,-1.516302 c 2.29149,-0.467148 5.28711,-0.322184 7.80964,-0.379079 0.40267,0.07765 1.10941,-0.132582 1.08328,0.715961 l -0.31241,0.451106 c -0.18258,0.305555 -0.45696,0.39692 -0.65405,0.496006 l -5.51822,1.146548 h -0.13379 z"
         style="fill:#000000;fill-rule:evenodd;stroke:#000000;stroke-width:0.2042564px;stroke-linecap:butt;stroke-linejoin:miter;stroke-opacity:1" />
    </g>
  </g>
</svg>
