<?xml version="1.0" encoding="UTF-8" standalone="no"?>
<!-- Created with Inkscape (http://www.inkscape.org/) -->

<svg
   xmlns:dc="http://purl.org/dc/elements/1.1/"
   xmlns:cc="http://creativecommons.org/ns#"
   xmlns:rdf="http://www.w3.org/1999/02/22-rdf-syntax-ns#"
   xmlns:svg="http://www.w3.org/2000/svg"
   xmlns="http://www.w3.org/2000/svg"
   xmlns:sodipodi="http://sodipodi.sourceforge.net/DTD/sodipodi-0.dtd"
   xmlns:inkscape="http://www.inkscape.org/namespaces/inkscape"
   width="100"
   height="100"
   viewBox="0 0 26.458333 26.458334"
   version="1.1"
   id="svg13625"
   inkscape:version="0.92.1 r15371"
   sodipodi:docname="vaca2.svg">
  <defs
     id="defs13619">
    <clipPath
       clipPathUnits="userSpaceOnUse"
       id="clipPath9406-5-9-1-5-3-8-6-4">
      <rect
         style="opacity:0.73280005;fill:#ffdd55;fill-opacity:1;stroke:none;stroke-width:0.5;stroke-miterlimit:4;stroke-dasharray:none;stroke-opacity:1"
         id="rect9408-2-0-59-4-6-7-1-03"
         width="477.41364"
         height="539.93207"
         x="573.77612"
         y="244.1604" />
    </clipPath>
  </defs>
  <sodipodi:namedview
     id="base"
     pagecolor="#ffffff"
     bordercolor="#666666"
     borderopacity="1.0"
     inkscape:pageopacity="0.0"
     inkscape:pageshadow="2"
     inkscape:zoom="2.7599398"
     inkscape:cx="108.57143"
     inkscape:cy="45.714286"
     inkscape:document-units="mm"
     inkscape:current-layer="layer1"
     showgrid="false"
     units="px"
     inkscape:window-width="1918"
     inkscape:window-height="1023"
     inkscape:window-x="0"
     inkscape:window-y="26"
     inkscape:window-maximized="1" />
  <metadata
     id="metadata13622">
    <rdf:RDF>
      <cc:Work
         rdf:about="">
        <dc:format>image/svg+xml</dc:format>
        <dc:type
           rdf:resource="http://purl.org/dc/dcmitype/StillImage" />
        <dc:title></dc:title>
      </cc:Work>
    </rdf:RDF>
  </metadata>
  <g
     inkscape:label="Capa 1"
     inkscape:groupmode="layer"
     id="layer1"
     transform="translate(0,-270.54165)">
    <g
       id="g12622"
       transform="matrix(0.57140492,0,0,0.57140492,-370.43164,272.38326)"
       inkscape:export-xdpi="94"
       inkscape:export-ydpi="94">
      <path
         inkscape:export-ydpi="94"
         inkscape:export-xdpi="94"
         inkscape:export-filename="/home/alumno/Escritorio/video_tutorial/vaca_01.png"
         sodipodi:nodetypes="cccccc"
         clip-path="none"
         mask="none"
         inkscape:connector-curvature="0"
         id="path6937-9-4-0-1-8"
         d="m 660.80492,14.824694 c -0.071,-0.36185 -1.14235,-4.12641 -2.3718,-4.13081 -1.22944,-0.005 -2.96489,-0.083 -2.61028,1.87098 0.3546,1.95395 1.21805,3.1865 2.5911,3.48075 1.37305,0.29416 2.74715,0.29911 2.74715,0.29911 z"
         style="display:inline;fill:#f4d7d7;fill-opacity:1;stroke:none;stroke-width:0.12410176" />
      <path
         inkscape:export-ydpi="94"
         inkscape:export-xdpi="94"
         inkscape:export-filename="/home/alumno/Escritorio/video_tutorial/vaca_01.png"
         clip-path="none"
         mask="none"
         sodipodi:nodetypes="ccssccccscc"
         inkscape:connector-curvature="0"
         id="path6935-0-4-61-9-3"
         d="m 661.68479,15.613484 c 4.57733,-3.26064 -0.22276,-2.52212 -0.22276,-2.52212 0,0 3.64326,-7.58073 10.14226,-4.80922 6.49901,2.77155 8.81068,3.50301 9.523,6.5431 0.71231,3.03999 0.16132,4.36536 0.0866,6.11148 -2.04423,4.304037 4.87673,10.072403 3.84609,15.61809 l -28.0983,-0.118618 c -1.27254,-3.438239 1.90605,-8.497731 3.91937,-13.004342 0.35568,-0.82444 0.53349,-1.85345 0.75132,-2.98468 0.24374,-1.26572 -0.8594,-4.37599 0.0524,-4.83376 z"
         style="display:inline;fill:#ffffff;stroke:#000000;stroke-width:0.18000002;stroke-miterlimit:4;stroke-dasharray:none" />
      <path
         inkscape:export-ydpi="94"
         inkscape:export-xdpi="94"
         inkscape:export-filename="/home/alumno/Escritorio/video_tutorial/vaca_01.png"
         clip-path="none"
         mask="none"
         sodipodi:nodetypes="cssccccssscscc"
         inkscape:connector-curvature="0"
         id="path7012-4-2-5-6-8"
         d="m 669.64776,18.396644 c 0,0 -1.95334,2.80566 -2.56938,3.4682 -0.61605,0.66261 -2.31003,2.44643 -2.41323,2.70171 -0.10318,0.25535 7.64181,8.10735 7.48766,8.3114 0.34569,3.42757 0.33353,3.540824 0.33353,3.540824 l -15.48914,-0.05151 c -1.05352,-2.14855 1.53374,-8.239602 2.77315,-10.159621 0.14865,-1.114761 0.43661,-1.051978 1.10743,-2.324142 0.43865,-0.831875 0.66567,-2.4639 0.87279,-3.47399 0.19898,-0.97042 -0.21161,-1.7489 -0.15929,-2.48223 0.29914,-4.19326 -0.10465,-7.11478 2.10022,-7.06941 2.1469,0.26338 5.53322,-2.84397 6.18592,0.53357 0.6527,3.37749 -0.22967,7.00524 -0.22967,7.00524 z"
         style="display:inline;fill:#d5f6ff;stroke:none;stroke-width:0.12410176" />
      <path
         inkscape:export-ydpi="94"
         inkscape:export-xdpi="94"
         inkscape:export-filename="/home/alumno/Escritorio/video_tutorial/vaca_01.png"
         clip-path="none"
         mask="none"
         sodipodi:nodetypes="cssssc"
         inkscape:connector-curvature="0"
         id="path6983-98-7-9-9-7"
         d="m 671.86247,16.961634 c 0,0 0.83979,3.35614 1.41653,3.86449 0.57675,0.50831 2.74534,2.79942 5.02502,2.52292 2.24526,-0.27235 2.65898,-1.60939 2.66494,-3.27275 0.006,-1.66336 0.8118,-5.97193 -0.77848,-6.19458 -1.59027,-0.22271 -8.32801,3.07992 -8.32801,3.07992 z"
         style="display:inline;fill:#000000;fill-opacity:1;stroke:#000000;stroke-width:0.07159422px;stroke-linecap:butt;stroke-linejoin:miter;stroke-opacity:1" />
      <path
         inkscape:export-ydpi="94"
         inkscape:export-xdpi="94"
         inkscape:export-filename="/home/alumno/Escritorio/video_tutorial/vaca_01.png"
         sodipodi:nodetypes="ccccccc"
         clip-path="none"
         mask="none"
         inkscape:connector-curvature="0"
         id="path7018-2-8-4-3-3"
         d="m 665.36496,29.069304 0.96522,1.79337 c 0,0 4.8554,0.78449 5.98155,0.48172 1.12613,-0.30285 3.37934,-1.16416 3.37934,-1.16416 l 0.41369,-1.27696 c 0,0 -3.89147,1.3668 -5.83417,1.20642 -1.94272,-0.16034 -4.90563,-1.04039 -4.90563,-1.04039 z"
         style="display:inline;fill:#000000;fill-opacity:1;stroke:#000000;stroke-width:0.07159422px;stroke-linecap:butt;stroke-linejoin:miter;stroke-opacity:1" />
      <path
         inkscape:export-ydpi="94"
         inkscape:export-xdpi="94"
         inkscape:export-filename="/home/alumno/Escritorio/video_tutorial/vaca_01.png"
         sodipodi:nodetypes="ccccccc"
         clip-path="none"
         mask="none"
         inkscape:connector-curvature="0"
         id="path13288-9-3-1"
         d="m 665.44911,28.831324 1.20691,2.12979 c 0,0 1.74289,0.84123 3.10924,0.84618 1.36634,0.005 5.24147,-1.04396 5.24147,-1.04396 l 1.30132,-3.03173 c 0,0 -5.54211,0.20787 -7.13754,0.58169 -1.59543,0.37385 -3.7214,0.51803 -3.7214,0.51803 z"
         style="display:inline;fill:#c83737;stroke:#000000;stroke-width:0.10627198px;stroke-linecap:butt;stroke-linejoin:miter;stroke-opacity:1" />
      <path
         inkscape:export-ydpi="94"
         inkscape:export-xdpi="94"
         inkscape:export-filename="/home/alumno/Escritorio/video_tutorial/vaca_01.png"
         sodipodi:nodetypes="cccccc"
         clip-path="none"
         mask="none"
         inkscape:connector-curvature="0"
         id="path13290-0-8-0"
         d="m 667.66582,27.950894 0.57426,1.02194 c 0,0 4.81613,-0.0366 5.20218,-0.24971 0.38605,-0.21335 0.50682,-1.66216 0.50682,-1.66216 l -4.00686,-0.0145 z"
         style="display:inline;fill:#ffffff;stroke:none;stroke-width:0.12410176" />
      <path
         inkscape:export-ydpi="94"
         inkscape:export-xdpi="94"
         inkscape:export-filename="/home/alumno/Escritorio/video_tutorial/vaca_01.png"
         clip-path="none"
         mask="none"
         sodipodi:nodetypes="cscczsccsc"
         inkscape:connector-curvature="0"
         id="path5150-81-5-9-0-0"
         d="m 664.70901,28.603254 c 1.16278,1.94287 2.77197,4.41341 5.80654,4.44909 3.61812,0.0425 5.8797,-2.471 6.15775,-4.86248 0.50346,-1.89504 0.085,-2.88274 -0.54601,-3.79519 0.16487,-1.0612 -0.46871,-1.04927 -1.40766,-1.38033 -0.93895,-0.33111 -1.81873,1.0452 -3.83176,1.05496 -1.0065,0.005 -2.32962,-1.10661 -3.35499,-1.45973 -1.5698,-0.2598 -2.56246,1.47186 -3.10056,2.66656 -0.76901,1.84825 -0.12185,2.66119 0.27669,3.32709 z"
         style="display:inline;fill:#deccd8;fill-opacity:1;stroke:none;stroke-width:0.12410176" />
      <path
         inkscape:export-ydpi="94"
         inkscape:export-xdpi="94"
         inkscape:export-filename="/home/alumno/Escritorio/video_tutorial/vaca_01.png"
         sodipodi:nodetypes="ccsccc"
         clip-path="none"
         mask="none"
         inkscape:connector-curvature="0"
         id="path6939-3-5-1-5-5"
         d="m 681.48422,16.128284 c 0,0 1.8946,-3.97089 3.41333,-3.96545 1.51873,0.006 3.18262,-0.1332 2.81506,1.52883 -0.36757,1.66208 -0.80304,2.09448 -2.90319,2.88244 -2.10016,0.78806 -3.83663,0.99879 -3.83663,0.99879 z"
         style="display:inline;fill:#f4d7d7;fill-opacity:1;stroke:none;stroke-width:0.12410176" />
      <path
         inkscape:export-ydpi="94"
         inkscape:export-xdpi="94"
         inkscape:export-filename="/home/alumno/Escritorio/video_tutorial/vaca_01.png"
         clip-path="none"
         mask="none"
         sodipodi:open="true"
         sodipodi:end="6.1852847"
         sodipodi:start="6.2071318"
         transform="rotate(0.20537676)"
         d="m 680.7302,13.650536 a 4.1223021,4.2669439 0 0 1 -3.77473,4.576978 4.1223021,4.2669439 0 0 1 -4.44238,-3.882116 4.1223021,4.2669439 0 0 1 3.7262,-4.6193854 4.1223021,4.2669439 0 0 1 4.48308,3.8316574"
         sodipodi:ry="4.2669439"
         sodipodi:rx="4.1223021"
         sodipodi:cy="13.974739"
         sodipodi:cx="676.61981"
         id="path6985-4-6-77-66-0"
         style="display:inline;fill:#ffffff;fill-opacity:1;stroke:none;stroke-width:0.07159422"
         sodipodi:type="arc" />
      <path
         inkscape:export-ydpi="94"
         inkscape:export-xdpi="94"
         inkscape:export-filename="/home/alumno/Escritorio/video_tutorial/vaca_01.png"
         clip-path="none"
         mask="none"
         sodipodi:open="true"
         sodipodi:end="6.1852847"
         sodipodi:start="6.2071318"
         d="m 670.18888,13.370705 a 4.1223021,4.2669439 0 0 1 -3.77473,4.576979 4.1223021,4.2669439 0 0 1 -4.44238,-3.882117 4.1223021,4.2669439 0 0 1 3.7262,-4.6193854 4.1223021,4.2669439 0 0 1 4.48308,3.8316574"
         sodipodi:ry="4.2669439"
         sodipodi:rx="4.1223021"
         sodipodi:cy="13.694908"
         sodipodi:cx="666.07849"
         id="path6985-6-2-3-1-4-3"
         style="display:inline;fill:#ffffff;fill-opacity:1;stroke:none;stroke-width:0.07159422"
         sodipodi:type="arc"
         transform="rotate(0.20537676)" />
      <path
         inkscape:export-ydpi="94"
         inkscape:export-xdpi="94"
         inkscape:export-filename="/home/alumno/Escritorio/video_tutorial/vaca_01.png"
         clip-path="none"
         mask="none"
         sodipodi:nodetypes="csccsssc"
         inkscape:connector-curvature="0"
         id="path5154-0-4-7-6-1"
         d="m 660.97475,15.409284 c -0.72731,-2.96296 -2.27283,-4.83278 -3.81917,-3.3826 -1.48374,1.39146 1.97739,3.49034 3.52868,4.0235 l 0.11634,0.56967 c -1.95231,0.26097 -7.43879,-2.26931 -6.72061,-4.89926 0.44886,-1.64371 1.38997,-2.62131 2.61142,-2.62173 0.73287,-2.5e-4 1.56614,0.35155 2.45705,1.12074 2.1197,1.83014 2.36779,3.17266 2.05823,4.79152"
         style="display:inline;fill:#ffffff;fill-opacity:1;stroke:#000000;stroke-width:0.18000002;stroke-miterlimit:4;stroke-dasharray:none" />
      <path
         inkscape:export-ydpi="94"
         inkscape:export-xdpi="94"
         inkscape:export-filename="/home/alumno/Escritorio/video_tutorial/vaca_01.png"
         clip-path="none"
         mask="none"
         sodipodi:nodetypes="csccsssc"
         inkscape:connector-curvature="0"
         id="path5154-4-0-1-7-2-8"
         d="m 681.24771,16.381324 c 1.23756,-2.78867 3.08812,-4.35718 4.35502,-2.65746 1.21561,1.63091 -2.56097,3.08774 -4.18189,3.33948 l -0.2148,0.54026 c 1.87587,0.60063 7.7221,-0.9243 7.47812,-3.63959 -0.15248,-1.69706 -0.90679,-2.82502 -2.10909,-3.04049 -0.72137,-0.12926 -1.60357,0.0703 -2.61598,0.67068 -2.40877,1.4284 -2.88933,2.70627 -2.86961,4.35434"
         style="display:inline;fill:#ffffff;fill-opacity:1;stroke:#000000;stroke-width:0.18000002;stroke-miterlimit:4;stroke-dasharray:none" />
      <path
         inkscape:export-ydpi="94"
         inkscape:export-xdpi="94"
         inkscape:export-filename="/home/alumno/Escritorio/video_tutorial/vaca_01.png"
         clip-path="none"
         mask="none"
         sodipodi:nodetypes="sssscsssscsssscccsscscccsscccc"
         inkscape:connector-curvature="0"
         id="path5152-7-9-1-0-0"
         d="m 671.51504,4.670274 c -10.8508,-0.13524 -10.6504,9.07096 -10.8733,11.19468 -0.2229,2.12373 -1.47126,6.88679 -1.02695,7.31781 0.4443,0.43107 0.59536,0.0987 0.99429,-0.25369 0.36628,-0.32355 0.84809,-5.24051 0.77623,-6.03006 0.0817,0.66266 0.65029,3.21505 4.60407,3.84459 2.70713,0.43107 4.26244,-2.66925 4.88419,-3.14382 0.62175,-0.47457 1.37927,-0.24244 1.81116,0.29956 0.4319,0.54201 0.31201,2.90094 3.73315,3.38955 2.74708,0.3923 4.28137,-2.87305 4.28137,-2.87305 0,0 1.17767,4.1444 1.65438,4.71549 0.67656,0.81057 1.36859,0.20637 1.16366,-0.68942 -0.27147,-1.18655 -2.48527,-3.06401 -2.01903,-6.60289 0.46626,-3.53887 -0.41071,-11.04943 -9.98322,-11.16875 z m -5.8627,8.21514 c 1.73037,-0.0411 3.21307,1.33276 3.37751,3.16664 l 0.007,0.0755 c 0.13248,1.9262 -1.2434,3.60178 -3.07308,3.74192 -1.82968,0.14019 -3.42102,-1.30696 -3.55349,-3.23311 -0.13248,-1.92616 1.2434,-3.60174 3.07307,-3.74197 0.0563,-0.005 0.11269,-0.008 0.1685,-0.009 z m 10.64033,-0.25461 c 1.84307,-0.0432 3.42392,1.38652 3.59924,3.29506 l 0.007,0.0783 c 0.14128,2.00456 -1.3227,3.74894 -3.27152,3.89465 -1.94882,0.14571 -3.64341,-1.36055 -3.78469,-3.36511 -0.14127,-2.00456 1.3227,-3.7489 3.27152,-3.89462 0.06,-0.005 0.11955,-0.007 0.17902,-0.008 z"
         style="display:inline;fill:#9d8167;fill-opacity:1;stroke:#000000;stroke-width:0.18000002;stroke-miterlimit:4;stroke-dasharray:none" />
      <path
         inkscape:export-ydpi="94"
         inkscape:export-xdpi="94"
         inkscape:export-filename="/home/alumno/Escritorio/video_tutorial/vaca_01.png"
         clip-path="none"
         mask="none"
         sodipodi:nodetypes="cscc"
         inkscape:connector-curvature="0"
         id="path5962-64-1-5-0-1"
         d="m 662.95173,8.078394 c -0.54131,-0.56129 -2.27906,-3.33736 -1.704,-3.97962 1.21567,-1.35782 3.42777,2.44647 3.42777,2.44647 0,0 -1.2493,0.7696 -1.72377,1.53315 z"
         style="display:inline;fill:#000000;fill-opacity:1;stroke:none;stroke-width:0.12410176" />
      <path
         inkscape:export-ydpi="94"
         inkscape:export-xdpi="94"
         inkscape:export-filename="/home/alumno/Escritorio/video_tutorial/vaca_01.png"
         clip-path="none"
         mask="none"
         sodipodi:nodetypes="cscc"
         inkscape:connector-curvature="0"
         id="path5964-7-1-9-4-7"
         d="m 678.56838,6.993924 c 0,0 2.76611,-3.16614 3.32256,-2.44277 0.92324,1.20025 -1.04981,3.81226 -1.96805,4.05852 -0.55528,-1.14853 -1.35451,-1.61575 -1.35451,-1.61575 z"
         style="display:inline;fill:#000000;fill-opacity:1;stroke:none;stroke-width:0.12410176" />
      <path
         inkscape:export-ydpi="94"
         inkscape:export-xdpi="94"
         inkscape:export-filename="/home/alumno/Escritorio/video_tutorial/vaca_01.png"
         clip-path="none"
         mask="none"
         sodipodi:nodetypes="cccsssc"
         inkscape:connector-curvature="0"
         id="path6961-0-7-6-6-9"
         d="m 672.71878,15.138604 c 0,0 1.3288,-2.74849 3.64409,-2.77131 2.29761,0.0357 3.04847,1.29861 3.56814,3.28535 0,0 -0.33568,-2.18896 -0.92973,-2.91428 -0.6165,-0.75273 -1.71295,-1.30795 -2.77981,-1.27558 -0.99969,0.0303 -2.2083,0.69719 -2.79017,1.6172 -0.56353,0.89101 -0.71252,2.05862 -0.71252,2.05862 z"
         style="display:inline;fill:#aaeeff;stroke:none;stroke-width:0.12410176" />
      <path
         inkscape:export-ydpi="94"
         inkscape:export-xdpi="94"
         inkscape:export-filename="/home/alumno/Escritorio/video_tutorial/vaca_01.png"
         clip-path="none"
         mask="none"
         sodipodi:nodetypes="cccsssc"
         inkscape:connector-curvature="0"
         id="path6961-8-5-1-73-75-1"
         d="m 662.07747,15.417724 c 0,0 1.3288,-2.74853 3.64409,-2.77134 2.29761,0.0357 3.04847,1.29864 3.56814,3.28538 0,0 -0.33568,-2.18895 -0.92973,-2.91427 -0.6165,-0.75278 -1.71295,-1.30795 -2.77981,-1.27563 -0.99969,0.0303 -2.20831,0.69723 -2.79018,1.6172 -0.56352,0.89101 -0.71251,2.05866 -0.71251,2.05866 z"
         style="display:inline;fill:#aaeeff;stroke:none;stroke-width:0.12410176" />
      <path
         inkscape:export-ydpi="94"
         inkscape:export-xdpi="94"
         inkscape:export-filename="/home/alumno/Escritorio/video_tutorial/vaca_01.png"
         clip-path="none"
         mask="none"
         sodipodi:nodetypes="ccsccsc"
         inkscape:connector-curvature="0"
         id="path6981-2-8-65-6-0"
         d="m 669.1949,14.637814 0.25026,0.79641 c 0,0 0.68732,-0.0698 1.66365,-0.0663 0.83168,0.005 1.37396,0.0411 1.37396,0.0411 l 0.2924,-0.86679 c 0,0 -0.61512,0.10628 -1.73609,0.10225 -1.12097,-0.005 -1.84418,-0.007 -1.84418,-0.007 z"
         style="display:inline;fill:#aaeeff;fill-opacity:1;stroke:none;stroke-width:0.12410176" />
      <path
         inkscape:export-ydpi="94"
         inkscape:export-xdpi="94"
         inkscape:export-filename="/home/alumno/Escritorio/video_tutorial/vaca_01.png"
         clip-path="none"
         mask="none"
         sodipodi:open="true"
         sodipodi:end="6.1852847"
         sodipodi:start="6.2071318"
         transform="rotate(0.20537676)"
         d="m 676.4046,23.128962 a 1.3551764,1.0227746 0 0 1 -1.24091,1.097089 1.3551764,1.0227746 0 0 1 -1.4604,-0.930533 1.3551764,1.0227746 0 0 1 1.22496,-1.107253 1.3551764,1.0227746 0 0 1 1.47378,0.918437"
         sodipodi:ry="1.0227746"
         sodipodi:rx="1.3551764"
         sodipodi:cy="23.206673"
         sodipodi:cx="675.05334"
         id="path7014-8-3-6-9-3"
         style="display:inline;fill:#000000;fill-opacity:1;stroke:none;stroke-width:0.07159422"
         sodipodi:type="arc" />
      <path
         inkscape:export-ydpi="94"
         inkscape:export-xdpi="94"
         inkscape:export-filename="/home/alumno/Escritorio/video_tutorial/vaca_01.png"
         clip-path="none"
         mask="none"
         sodipodi:open="true"
         sodipodi:end="6.1852847"
         sodipodi:start="6.2071318"
         transform="rotate(0.20537676)"
         d="m 668.17148,22.593963 a 1.3040376,0.99720514 0 0 1 -1.19408,1.069662 1.3040376,0.99720514 0 0 1 -1.40529,-0.907269 1.3040376,0.99720514 0 0 1 1.17873,-1.079573 1.3040376,0.99720514 0 0 1 1.41817,0.895477"
         sodipodi:ry="0.99720514"
         sodipodi:rx="1.3040376"
         sodipodi:cy="22.669731"
         sodipodi:cx="666.87122"
         id="path7016-3-1-3-8-5"
         style="display:inline;fill:#000000;fill-opacity:1;stroke:none;stroke-width:0.07159422"
         sodipodi:type="arc" />
      <path
         inkscape:connector-curvature="0"
         id="path5156-8-51-3-4-28-4"
         d="m 667.73157,16.181746 c 0.0741,1.09002 -0.69583,2.037999 -1.71965,2.117369 -1.02382,0.07937 -1.91385,-0.739923 -1.98794,-1.829943 -0.0741,-1.090021 0.69583,-2.037999 1.71965,-2.117371 1.00804,-0.07814 1.88962,0.715608 1.98457,1.786864"
         style="display:inline;fill:#000000;fill-opacity:1;stroke:none;stroke-width:0.05144695" />
      <path
         inkscape:connector-curvature="0"
         id="path5156-8-5-6-3-8-2-8"
         d="m 678.35106,16.037409 c 0.0741,1.090021 -0.69583,2.037999 -1.71965,2.11737 -1.02382,0.07937 -1.91385,-0.739924 -1.98794,-1.829944 -0.0741,-1.09002 0.69583,-2.037999 1.71965,-2.11737 1.00804,-0.07814 1.88962,0.715607 1.98457,1.786864"
         style="display:inline;fill:#000000;fill-opacity:1;stroke:none;stroke-width:0.05144695" />
      <g
         clip-path="none"
         mask="none"
         inkscape:export-ydpi="94"
         inkscape:export-xdpi="94"
         inkscape:export-filename="/home/alumno/Escritorio/video_tutorial/vaca_01.png"
         transform="matrix(0.07159376,2.5662865e-4,-2.5662865e-4,0.07159376,385.57509,-20.560036)"
         id="g3741-7-12-99-4"
         style="display:inline">
        <path
           style="display:inline;opacity:0.43000004;fill:#e6e6e6;stroke:none"
           d="m 4023.8296,473.02454 c 0,0 31.1922,2.90819 41.5179,15.18716 10.3258,12.27898 12.391,21.97292 24.0936,28.43554 11.7025,6.46262 17.2097,3.87758 17.2097,3.87758 0,0 18.1056,-45.96608 -22.7168,-66.88816 -38.5778,-19.77166 -60.1044,19.38788 -60.1044,19.38788 z"
           id="path6987-0-1-4-7-9-6-6"
           inkscape:connector-curvature="0"
           sodipodi:nodetypes="csscsc" />
        <path
           sodipodi:type="arc"
           style="display:inline;fill:#ffffff;fill-opacity:1;stroke:none"
           id="path6989-1-1-3-0-9"
           sodipodi:cx="-427.29453"
           sodipodi:cy="781.47375"
           sodipodi:rx="7.5761442"
           sodipodi:ry="8.586297"
           d="m -419.74028,780.82137 a 7.5761442,8.586297 0 0 1 -6.93736,9.21017 7.5761442,8.586297 0 0 1 -8.16439,-7.81192 7.5761442,8.586297 0 0 1 6.84817,-9.2955 7.5761442,8.586297 0 0 1 8.2392,7.71037"
           transform="translate(4501.6594,-306.73121)"
           sodipodi:start="6.2071318"
           sodipodi:end="6.1852847"
           sodipodi:open="true" />
        <path
           style="display:inline;opacity:0.43000004;fill:#e6e6e6;stroke:none"
           d="m 3873.8164,477.45607 c 0,0 31.1922,2.90819 41.5179,15.18716 10.3258,12.27898 12.391,21.97292 24.0936,28.43554 11.7025,6.46262 17.2097,3.87758 17.2097,3.87758 0,0 18.1056,-45.96608 -22.7168,-66.88816 -38.5778,-19.77166 -60.1044,19.38788 -60.1044,19.38788 z"
           id="path6987-0-2-1-9-2-2"
           inkscape:connector-curvature="0"
           sodipodi:nodetypes="csscsc" />
        <path
           sodipodi:type="arc"
           style="display:inline;fill:#ffffff;fill-opacity:1;stroke:none"
           id="path6989-6-9-7-0-7-9"
           sodipodi:cx="-427.29453"
           sodipodi:cy="781.47375"
           sodipodi:rx="7.5761442"
           sodipodi:ry="8.586297"
           d="m -419.74028,780.82137 a 7.5761442,8.586297 0 0 1 -6.93736,9.21017 7.5761442,8.586297 0 0 1 -8.16439,-7.81192 7.5761442,8.586297 0 0 1 6.84817,-9.2955 7.5761442,8.586297 0 0 1 8.2392,7.71037"
           transform="translate(4351.3765,-304.15304)"
           sodipodi:start="6.2071318"
           sodipodi:end="6.1852847"
           sodipodi:open="true" />
      </g>
      <path
         sodipodi:nodetypes="ccc"
         inkscape:connector-curvature="0"
         id="path11962-0"
         d="m 667.5692,29.41803 c 2.26243,-2.35896 4.64843,-2.05619 6.63959,-0.0983 -2.40432,0.44751 -3.91861,0.568035 -6.63959,0.0983 z"
         style="fill:#800000;fill-opacity:1;fill-rule:evenodd;stroke:none;stroke-width:0.2386834px;stroke-linecap:butt;stroke-linejoin:miter;stroke-opacity:1" />
      <g
         transform="translate(111.673,-21.688953)"
         id="g12499">
        <path
           style="fill:#ffffff;fill-rule:evenodd;stroke:#000000;stroke-width:0.2;stroke-linecap:butt;stroke-linejoin:miter;stroke-miterlimit:4;stroke-dasharray:none;stroke-opacity:1"
           d="m 556.1908,58.106864 -2.89927,-5.834854 0.18595,-3.385053 c -1.25983,-3.081521 -1.67977,-4.330636 -1.82587,-5.828286 -0.19791,-2.028913 -1.39719,-2.15158 -1.98792,-1.173947 -0.84371,1.3963 -1.82438,5.155153 -0.28994,9.61854 l -0.76349,6.615674 z"
           id="path12078-0-3"
           inkscape:connector-curvature="0"
           sodipodi:nodetypes="cccssccc" />
        <path
           style="fill:#000000;fill-rule:evenodd;stroke:#000000;stroke-width:0.2;stroke-linecap:butt;stroke-linejoin:miter;stroke-miterlimit:4;stroke-dasharray:none;stroke-opacity:1"
           d="m 553.36487,52.330812 0.18595,-3.385053 c -1.25983,-3.081521 -1.67977,-4.330636 -1.82587,-5.828286 -0.19791,-2.028913 -1.39719,-2.15158 -1.98792,-1.173947 -0.84371,1.3963 -1.88299,5.711921 -0.34855,10.175308 0.54644,0.266991 2.80948,0.367732 3.97639,0.211978 z"
           id="path12078-0-3-1"
           inkscape:connector-curvature="0"
           sodipodi:nodetypes="ccsscc" />
      </g>
      <g
         transform="translate(110.0855,-21.688953)"
         id="g12495">
        <path
           style="fill:#ffffff;fill-rule:evenodd;stroke:#000000;stroke-width:0.2;stroke-linecap:butt;stroke-linejoin:miter;stroke-miterlimit:4;stroke-dasharray:none;stroke-opacity:1"
           d="m 564.19634,58.167311 2.6562,-5.890948 -0.18595,-3.385053 c 1.25983,-3.081521 1.67977,-4.330636 1.82587,-5.828286 0.19791,-2.028913 1.39719,-2.15158 1.98792,-1.173947 0.84371,1.3963 1.82438,5.155153 0.28994,9.61854 l 0.87568,6.671767 z"
           id="path12078-0-3-9"
           inkscape:connector-curvature="0"
           sodipodi:nodetypes="cccssccc" />
        <path
           style="fill:#000000;fill-rule:evenodd;stroke:#000000;stroke-width:0.2;stroke-linecap:butt;stroke-linejoin:miter;stroke-miterlimit:4;stroke-dasharray:none;stroke-opacity:1"
           d="m 566.7792,52.335165 -0.18595,-3.385053 c 1.25983,-3.081521 1.67977,-4.330636 1.82587,-5.828286 0.19791,-2.028913 1.39719,-2.15158 1.98792,-1.173947 0.84371,1.3963 1.88299,5.711921 0.34855,10.175308 -0.54644,0.266991 -2.80948,0.367732 -3.97639,0.211978 z"
           id="path12078-0-3-1-4"
           inkscape:connector-curvature="0"
           sodipodi:nodetypes="ccsscc" />
      </g>
    </g>
  </g>
</svg>
