<?xml version="1.0" encoding="utf-8"?>
<!-- Generator: Adobe Illustrator 22.1.0, SVG Export Plug-In . SVG Version: 6.00 Build 0)  -->
<svg version="1.1" id="Layer_1" xmlns="http://www.w3.org/2000/svg" xmlns:xlink="http://www.w3.org/1999/xlink" x="0px" y="0px"
	 viewBox="0 0 200 200" style="enable-background:new 0 0 200 200;" xml:space="preserve">
<style type="text/css">
	.st0{fill:#2DB0B2;}
	.st1{fill:#FFFFFF;}
	.st2{fill:#E69732;}
	.st3{fill:#0A1C28;}
</style>
<path class="st0" d="M100,4.5L100,4.5c52.7,0,95.5,42.8,95.5,95.5l0,0c0,52.7-42.8,95.5-95.5,95.5l0,0c-52.7,0-95.5-42.8-95.5-95.5
	l0,0C4.5,47.3,47.3,4.5,100,4.5z"/>
<g>
	<path class="st1" d="M97.8,60.4l-61.4-2.3v91.3h61.4V60.4c0-14.1-15.1-25.5-33.9-25.5v11.4c3.7,0-12.7-4-13.8,2.7
		c-6,36.9,47.6,89.2,47.6,100.3"/>
</g>
<g>
	<path class="st1" d="M49.2,58.1v76.2c48.6,0.3,48.6,14.8,48.6,14.8"/>
</g>
<g>
	<rect x="98.2" y="57.4" class="st1" width="61.4" height="91.9"/>
</g>
<g>
	<polygon class="st2" points="159.6,149.3 136.1,149.3 146.2,137.6 159.6,125.9 	"/>
</g>
<g>
	<polygon class="st1" points="149.8,134.2 133.1,149.3 133.1,125.9 159.6,125.9 	"/>
</g>
<g>
	<path class="st2" d="M36.4,58.1h12.1l0.7,76.2c0,0,48-0.3,48.6,14.8H36.4V58.1z"/>
</g>
<g id="book">
	<g>
		<path class="st3" d="M100.2,149.3h-4.4c0-5.4-17.8-12.7-46.6-12.7c-1,0-2-1-2-2V45.3c0-1,1-2,2-2c4.7,0,9.7,0.3,15.1,0.7L64,48.4
			c-4.4-0.3-8.4-0.7-12.4-0.7v84.5C75.4,132.6,100.2,138.6,100.2,149.3z"/>
	</g>
	<g>
		<path class="st3" d="M97.8,151.4H36.4c-1,0-2-1-2-2V58.1c0-1,1-2,2-2h12.7v4.4H38.5v86.9h57c-1.3-11.7-15.1-21.1-31.5-21.1
			c-1,0-2-1-2-2V34.9c0-1,1-2,2-2c19.8,0,35.9,12.4,35.9,27.5v88.9C100.2,150.3,99.2,151.4,97.8,151.4z M66,121.8
			c12.7,0.7,23.8,6.4,29.5,14.4V60.4C95.5,48,82.4,38,66,37.3V121.8z"/>
	</g>
	<g>
		<path class="st3" d="M159.6,151.4H98.2c-1,0-2-1-2-2V58.1c0-1,1-2,2-2h61.4c1,0,2,1,2,2v91.3C161.6,150.3,160.6,151.4,159.6,151.4
			z M100.2,147h57.4V60.1h-57.4C100.2,60.1,100.2,147,100.2,147z"/>
	</g>
	<g>
		<path class="st3" d="M129.7,151.4V147c1.3,0,2-1,2-2v-14.8c0-3.4,3-6.4,6.4-6.4h21.1c1,0,1.7,0.7,2,1.3c0.3,0.7,0,1.7-0.3,2.3
			L137.4,151l-2.3-2.3C134.1,150,132.1,151.4,129.7,151.4z M138.4,127.9c-1.3,0-2,1-2,2v14.8c0,0.3,0,1,0,1.3l18.5-18.5h-16.4v0.4
			H138.4z"/>
	</g>
</g>
<g>
	<path class="st3" d="M144.5,78.5h-35.9c-1,0-2-1-2-2s1-2,2-2h36.2c1,0,2,1,2,2S145.8,78.5,144.5,78.5z"/>
</g>
<g>
	<path class="st3" d="M144.5,90.3h-35.9c-1,0-2-1-2-2s1-2,2-2h36.2c1,0,2,1,2,2S145.8,90.3,144.5,90.3z"/>
</g>
<g>
	<path class="st3" d="M144.5,102.4h-35.9c-1,0-2-1-2-2s1-2,2-2h36.2c1,0,2,1,2,2S145.8,102.4,144.5,102.4z"/>
</g>
<g>
	<path class="st3" d="M144.5,114.1h-35.9c-1,0-2-1-2-2s1-2,2-2h36.2c1,0,2,1,2,2S145.8,114.1,144.5,114.1z"/>
</g>
</svg>
